<?xml version="1.0" standalone="no"?>
<!DOCTYPE svg PUBLIC "-//W3C//DTD SVG 1.1//EN" "http://www.w3.org/Graphics/SVG/1.1/DTD/svg11.dtd" >
<!--
2013-9-30: Created.
-->
<svg>
<metadata>
Created by iconfont
</metadata>
<defs>

<font id="iconfont" horiz-adv-x="1024" >
  <font-face
    font-family="iconfont"
    font-weight="500"
    font-stretch="normal"
    units-per-em="1024"
    ascent="896"
    descent="-128"
  />
    <missing-glyph />
    
    <glyph glyph-name="yinliangbianxiao" unicode="&#59264;" d="M545.723733 681.7792L381.3376 534.186667c-4.232533-3.822933-9.8304-5.870933-15.428267-5.870934H218.453333c-12.834133 0-23.210667-10.376533-23.210666-23.210666v-251.4944c0-12.834133 10.376533-23.210667 23.210666-23.210667h145.134934c5.7344 0 11.332267-2.184533 15.5648-6.007467l166.843733-150.186666c3.413333-3.003733 8.328533-3.822933 12.424533-1.911467 4.232533 1.911467 6.826667 6.007467 6.826667 10.6496V673.1776c0 4.5056-2.730667 8.738133-6.826667 10.513067-4.369067 1.911467-9.284267 1.2288-12.6976-1.911467zM613.5808 226.986667c-9.693867 0-18.158933 6.5536-20.343467 15.9744-2.321067 9.4208 2.184533 19.114667 10.786134 23.620266 41.642667 21.7088 67.720533 64.7168 67.720533 111.547734 0 46.830933-26.077867 89.838933-67.720533 111.547733-9.966933 5.461333-13.653333 17.885867-8.465067 27.989333s17.476267 14.062933 27.716267 9.147734c55.432533-28.808533 90.248533-86.152533 90.248533-148.548267 0-62.532267-34.816-119.876267-90.248533-148.6848-3.003733-1.774933-6.280533-2.594133-9.693867-2.594133z m0 0"  horiz-adv-x="1024" />

    
    <glyph glyph-name="shuaxin" unicode="&#59250;" d="M698.879266 118.027c-56.825-40.33-123.34-60.55-191.357-59.625-8.99 0.095-17.93 0.575-26.767 1.35-3.597 0.345-7.19 0.95-10.84 1.395-6.94 0.945-13.88 1.895-20.622 3.22-4.195 0.805-8.292 1.875-12.385 2.845-6.642 1.575-13.232 3.175-19.727 5.125-3.095 0.97-6.14 2.095-9.237 3.145-7.44 2.52-14.882 5.135-22.122 8.21-1.647 0.675-3.245 1.445-4.845 2.2-8.487 3.77-16.827 7.71-24.92 12.16-0.397 0.195-0.698 0.37-1.098 0.57-27.367 15.21-52.385 34.205-74.357 56.405-0.348 0.355-0.7 0.75-1.048 1.15-6.842 6.915-13.332 14.18-19.525 21.725-1.298 1.62-2.547 3.34-3.845 4.985-44.697 56.61-71.662 128.245-71.662 206.162l75.805 0c1.95 0 3.845 1.047 4.848 2.895 0.997 1.827 0.85 3.997-0.253 5.62l-127.39 193.477c-0.997 1.5-2.688 2.5-4.61 2.5-1.895 0-3.592-1-4.59-2.5L0.936266 397.591c-1.075-1.647-1.25-3.795-0.25-5.645 0.997-1.845 2.897-2.895 4.845-2.895l75.807 0c0-91.605 28.212-176.525 76.117-246.734 0.6-0.97 0.997-2.02 1.648-2.995 4.992-7.195 10.485-13.805 15.83-20.6 1.947-2.57 3.845-5.21 5.892-7.74 7.84-9.635 16.18-18.675 24.72-27.54 0.847-0.87 1.597-1.745 2.395-2.52 28.767-29.16 61.277-53.73 96.682-73.35 0.9-0.585 1.797-1.13 2.795-1.655 10.188-5.545 20.675-10.56 31.312-15.3 2.645-1.15 5.192-2.425 7.887-3.57 9.09-3.8 18.427-7.145 27.817-10.335 4.443-1.53 8.84-3.08 13.335-4.475 8.237-2.475 16.63-4.515 25.065-6.57 5.645-1.325 11.19-2.745 16.932-3.845 2.342-0.495 4.59-1.22 6.937-1.595 7.992-1.43 15.982-2.225 23.972-3.22 2.895-0.325 5.742-0.82 8.587-1.15 14.385-1.42 28.665-2.375 42.947-2.375 87.447 0 172.737 27.075 245.902 78.98 23.32 16.58 29.01 49.105 12.675 72.755C754.419266 128.887 722.199266 134.607 698.879266 118.027M941.484266 389.049c-0.045 91.335-28.065 176.075-75.755 246.137-0.705 1.2-1.195 2.422-1.95 3.52-5.945 8.565-12.39 16.555-18.825 24.57-0.75 0.975-1.45 1.997-2.245 2.945-43.65 53.605-98.435 95.027-160.555 122.095-1.7 0.75-3.4 1.597-5.1 2.347-9.935 4.117-20.065 7.762-30.255 11.235-3.695 1.223-7.345 2.572-11.09 3.695-8.885 2.722-17.92 4.942-27.015 7.065-5.04 1.175-10.04 2.472-15.125 3.472-2.555 0.5-4.895 1.247-7.395 1.695-6.79 1.202-13.635 1.728-20.425 2.6-4.7 0.597-9.345 1.347-14.09 1.847-11.43 1.072-22.77 1.522-34.105 1.722-2.045 0-4.095 0.325-6.142 0.325-0.348 0-0.7-0.1-1.095-0.125-87.292-0.075-172.437-26.765-245.499-78.6-23.37-16.527-29.062-49.11-12.73-72.755 16.327-23.645 48.587-29.39 71.91-12.81 56.43 40.025 122.297 60.275 189.812 59.672 9.74-0.072 19.28-0.548 28.715-1.445 2.95-0.348 5.795-0.775 8.69-1.15 7.795-0.95 15.485-2.072 23.07-3.595 3.35-0.647 6.69-1.525 9.935-2.272 7.445-1.695 14.895-3.52 22.185-5.742 2.29-0.747 4.54-1.572 6.83-2.345 8.34-2.75 16.485-5.717 24.52-9.09 0.81-0.348 1.655-0.772 2.45-1.097 48.09-20.95 90.29-53.207 123.205-93.53 0.19-0.253 0.395-0.575 0.59-0.8 46.345-57.102 74.26-130.107 74.26-209.579l-75.81 0c-1.94 0-3.845-1.048-4.84-2.895-1-1.845-0.855-3.997 0.255-5.645l127.43-193.454c0.96-1.495 2.66-2.465 4.6-2.465 1.895 0 3.595 0.97 4.595 2.465l127.345 193.454c1.095 1.648 1.245 3.8 0.25 5.645-1.005 1.847-2.895 2.895-4.85 2.895l-75.75 0L941.485266 389.049z"  horiz-adv-x="1025" />

    
    <glyph glyph-name="shouye2" unicode="&#59251;" d="M996.7104 454.02112 609.4336 857.1904C585.36448 882.22208 553.20064 896 518.72256 896S452.08064 882.22208 428.01664 857.1904L40.73984 454.02112c-39.9616-41.61536-34.816-77.58336-28.2112-92.61056 4.70528-10.65984 20.60288-39.9616 66.39616-39.9616l56.76544 0 0-310.15936c0-70.41536 50.56-136.71936 122.41408-136.71936l65.14688 0L422.9632-125.42976l0 72.87808 0 255.36c0 35.19488-5.32992 54.79936 30.61248 54.79936l65.14688 0 65.14688 0c35.93728 0 30.61248-19.60448 30.61248-54.79936l0-255.36 0-72.87808 99.71712 0 65.152 0c71.84896 0 122.40384 66.304 122.40384 136.71936l0 310.15936 56.77056 0c45.77792 0 61.68576 29.30176 66.39616 39.9616C1031.53664 376.43264 1036.672 412.40576 996.7104 454.02112z"  horiz-adv-x="1030" />

    
    <glyph glyph-name="pinglun2" unicode="&#59252;" d="M51.03104 690.03776v-460.72832c0-78.30528 63.42144-141.78816 141.69088-141.78816h353.31072l284.60544-177.12128v177.21856c78.30016 0 141.75744 63.45728 141.75744 141.78816V690.03776c0 78.30016-63.45728 141.75744-141.75744 141.75744H192.72192c-78.26944 0-141.69088-63.45216-141.69088-141.75744zM682.0864 460.8c0 28.2624 22.90688 51.2 51.2 51.2s51.2-22.9376 51.2-51.2-22.90688-51.2-51.2-51.2-51.2 22.9376-51.2 51.2z m-221.86496 0c0 28.2624 22.9376 51.2 51.2 51.2 28.29312 0 51.2-22.9376 51.2-51.2s-22.90688-51.2-51.2-51.2c-28.2624 0-51.2 22.9376-51.2 51.2z m-221.87008 0c0 28.2624 22.9376 51.2 51.2 51.2 28.26752 0 51.2-22.9376 51.2-51.2s-22.93248-51.2-51.2-51.2c-28.2624 0-51.2 22.9376-51.2 51.2z"  horiz-adv-x="1024" />

    
    <glyph glyph-name="xiaoxi1" unicode="&#59253;" d="M920.408 896H115.408C57.84 896 0 829.04 0 771.512v-613C0 100.984 57.84 64 115.408 64h225.84l152.752-175.448c6.064-6.752 14.752-13.104 23.84-13.104s17.752 7.552 23.84 14.336L694.472 64h225.936C977.936 64 1024 100.984 1024 158.512V771.512C1024 829.04 977.936 896 920.408 896zM960 158.512c0-22.216-17.376-30.512-39.592-30.512H680.184c-9.096 0-17.752-8.776-23.84-15.552L517.84-44.576l-138.44 158.24c-6.056 6.784-14.744 14.336-23.84 14.336h-240.16C93.16 128 64 136.296 64 158.512V771.512C64 793.744 93.16 832 115.408 832h805c22.216 0 39.592-38.256 39.592-60.488v-613zM819.784 640h-596c-17.688 0-32-14.328-32-32s14.312-32 32-32h596c17.688 0 32 14.328 32 32s-14.312 32-32 32zM527.84 416H223.784c-17.688 0-32-14.328-32-32s14.312-32 32-32H527.84c17.688 0 32 14.328 32 32s-14.312 32-32 32z"  horiz-adv-x="1024" />

    
    <glyph glyph-name="tuichu" unicode="&#59254;" d="M512-100.63370366000004c-253.80544749 0-460.29362247 206.47160491-460.29362247 460.27567154 0 132.9086909 57.44021655 259.29014723 157.60088649 346.76365169 25.47098982 22.28124752 64.16629219 19.63417566 86.41301872-5.82714828 22.24948818-25.47927486 19.6355565-64.16629219-5.84371838-86.41301869-73.51872711-64.21738331-115.68408247-156.98641234-115.68408247-254.52348472 0-186.2574761 151.54313781-337.79094802 337.80889895-337.79094803s337.80889894 151.53347191 337.80889895 337.79094803c0 97.52050229-42.15707033 190.29091214-115.66751238 254.50553378-25.46960898 22.24810734-28.08354066 60.93650551-5.82714827 86.4130187 22.25639238 25.47927486 60.93512467 28.09320655 86.41301869 5.82714828C914.8630718 618.91692586 972.29500331 492.53408869 972.29500331 359.64196788000004 972.29362247 105.83790124999996 765.80406665-100.63370366000004 512-100.63370366000004zM512 283.27732784c-33.8250768 0-61.24305218 27.42487959-61.24305218 61.24305218v467.24891771c0 33.81679175 27.41659455 61.24305218 61.24305218 61.24305219 33.8250768 0 61.24305218-27.42626043 61.24305218-61.24305219v-467.24891771c0-33.81679175-27.41797537-61.24305218-61.24305218-61.24305218z"  horiz-adv-x="1024" />

    
    <glyph glyph-name="zan1" unicode="&#59255;" d="M861.577 467.305h-223.037c86.425 319.186-59.547 335.487-59.547 335.487-61.867 0-49.042-48.918-53.716-57.076 0-156.096-165.796-278.407-165.796-278.407v-442.661c0-43.695 59.547-59.433 82.908-59.433h335.111c31.537 0 57.221 82.709 57.221 82.709 82.903 281.911 82.903 365.789 82.903 365.789 0.001 58.247-56.046 53.591-56.046 53.591v0 0ZM861.577 467.305ZM267.943 467.159h-133.553c-27.581 0-28.006-27.09-28.006-27.09l27.581-446.441c0-28.416 28.464-28.416 28.464-28.416h115.593c24.081 0 23.865 18.798 23.865 18.798v449.296c0 34.287-33.945 33.854-33.945 33.854v0 0ZM267.943 467.159Z"  horiz-adv-x="1024" />

    
    <glyph glyph-name="quanzi" unicode="&#59256;" d="M939.7 544.5c-17.8 40-80.9 61.9-169.3 64.9-61.9 66.4-150.2 108.2-248.6 108.2-165 0-302.2-116.8-332.2-271.3-89.6-58-122.7-120.4-108-169.2 13-43 69.5-67.1 153.3-71.4C294.7 111.10000000000002 400.7 48 521.8 48c186.9 0 338.5 149.9 338.5 334.8 0 6-0.6 11.9-0.9 17.9 58 46.5 88.9 96 80.3 143.8z m-417.9 114c138.5 0 253.5-100.1 275.4-230.8-23-15.5-51.3-32-85.7-49.1-16 14.7-37.2 23.9-60.8 23.9-47.9 0-86.7-37.3-89.1-84.1-9.8-3.1-19.5-6.3-29.6-9.2-110.8-32.8-198.1-44.2-262.2-44.7-17.4 35.9-27.4 76-27.4 118.4 0 151.9 125.3 275.6 279.4 275.6z m159.4-344.6c0-16.3-13.7-29.5-30.5-29.5s-30.4 13.2-30.4 29.5 13.7 29.5 30.4 29.5c16.8 0 30.5-13.3 30.5-29.5z m-543-19.7c-4 13.4 6.8 41.3 45.9 74.7 1.5-35.2 8.4-69 20-100.5-41.1 5.8-63.3 16.9-65.9 25.8z m383.6-187.1c-86.2 0-163.4 38.8-214.7 99.5 70.5 4.6 153 19.7 241.7 45.9 10.1 3 19.9 6.1 29.8 9.3 16.3-22 42.4-36.5 72.1-36.5 49.5 0 89.5 39.6 89.5 88.6 0 4.3-0.7 8.3-1.3 12.4 21.7 10.8 42.2 21.9 61 33.3-11.9-141.2-132-252.5-278.1-252.5z m327 360.9c-7.3 27.6-17.9 53.9-31.7 78.2 48.9-7.3 66.8-21.4 68.7-25.7 1-6.9-8.8-26.2-37-52.5z"  horiz-adv-x="1024" />

    
    <glyph glyph-name="sousuo2" unicode="&#59257;" d="M814.865261 126.381508l142.674667-148.942455c24.906214-24.741272 24.906214-68.28591 0-93.027182l6.267789 6.267789c-24.906214-24.906214-62.018121-24.906214-86.924335 0l-148.942455 155.210245c-74.388757-49.647485-167.58088-80.656546-260.608062-80.656546-254.505215-0.164942-465.465791 210.795635-465.465791 465.30085C1.867074 684.874482 206.724803 896 461.065076 896c254.505215 0 465.465791-211.125518 465.465792-465.465791 0-117.933395-43.379696-223.496154-111.665607-304.152701zM467.332865 58.095599C672.025653 58.095599 839.606533 225.676479 839.606533 430.534209 839.606533 635.391938 672.025653 802.972818 467.167923 802.972818 262.310194 802.972818 94.729313 635.391938 94.729313 430.534209 94.894255 225.676479 262.475135 58.095599 467.332865 58.095599z m0 0"  horiz-adv-x="1067" />

    
    <glyph glyph-name="renzheng" unicode="&#59258;" d="M959.712556 747.129076l-44.291349 0.699864c-0.999805 0-100.380394 2.09959-203.06034 41.691857-105.279438 40.792033-173.166178 87.582894-173.766061 87.982816L511.800039 896l-26.594806-18.496387c-0.599883-0.399922-68.486624-47.190783-173.766061-87.982816C208.959188 749.828549 109.478617 747.82894 108.578793 747.82894l-44.49131-0.699864v-430.415934c0-216.057801 291.243117-444.613161 447.912517-444.613162 156.769381 0 448.012498 228.45538 448.012498 444.613162l-0.299942 430.415934zM321.837141 123.650849V540.669401h-39.692247v37.892599h158.968951v-189.562976l200.160906 189.562976h157.769186z"  horiz-adv-x="1024" />

    
    <glyph glyph-name="baomingzhong" unicode="&#59259;" d="M492.948345 331.047064c-42.627421-33.50627-70.735458-61.428161-84.789477-86.185572-32.482467-57.239877-46.257267-95.120577-43.465078-140.726333 2.419897-41.417472 15.35704-72.783064 52.400083-113.269806 42.068983-45.978048 58.356753-76.133691 34.809291-103.869436-19.917616-23.454389-48.584091-16.380843-88.884687 5.584378C293.213748-69.632078 218.383079 2.592548 183.387642 77.143998 107.812389 238.904822 130.70834 385.494752 247.607992 525.569574c10.144954 12.099486 94.748285 109.267668 112.618296 133.094349 37.043043 49.328675 56.402221 94.469066 68.501707 166.693692 9.586516 56.960658 38.718356 84.137966 81.252704 63.848058 11.634121-5.584378 22.989024-13.960946 40.207523-28.666475l20.755273-17.963084c8.655786-7.445838 15.543186-13.216362 22.430586-18.893813 52.586229-42.441275 102.938706-92.514534 136.724195-133.094349C816.842285 586.439297 884.227117 435.195719 884.227117 290.094956c0-174.046457-42.813567-256.136817-188.938132-358.703231-72.876137-51.190134-113.08366-69.153218-139.330239-53.982324-22.709805 13.030216-23.361316 37.043043-13.960945 57.705242a79.670464 79.670464 0 0 0 24.198972 29.876424c20.010689 14.705529 49.142529 44.209661 67.291759 74.086085 24.571264 40.486743 26.432724 73.993012 0.65151 104.334801-9.586516 11.354903-13.960946 16.473916-19.359178 23.082097-34.436999 41.882837-55.843783 75.202961-68.501707 112.711369-5.95667 17.683865-5.770524 35.926167-2.326824 75.109888l0.372292 4.839794 0.93073 11.634121c-19.266105-14.612457-43.185859-32.57554-52.30701-39.649085z"  horiz-adv-x="1024" />

    
    <glyph glyph-name="tianjiaguanzhu" unicode="&#59260;" d="M814.4 449.5996875c31.9996875 0 62.4-6.399375 91.2-20.799375 51.1996875 126.399375-11.2003125 270.399375-137.5996875 321.6-28.8 11.199375-59.2003125 17.5996875-91.2 17.5996875-62.4 1.6003125-123.200625-24-164.8003125-70.3996875l-27.1996875-33.6-25.6003125 30.399375c-43.2 48-102.4003125 73.6003125-164.8003125 73.6003125-100.8 0-190.3996875-60.7996875-228.7996875-151.9996875-36.7996875-92.8003125-16.0003125-198.4003125 54.4003125-268.8l326.4-331.2c9.6-9.6 24-16.0003125 38.4-16.0003125s28.8 6.4003125 38.4 16.0003125l100.8 102.399375c-60.800625 104.000625-27.200625 238.400625 76.8 300.800625 35.199375 19.2 73.599375 30.399375 113.5996875 30.399375z m108.7996875-164.799375h-54.399375v54.399375c1.599375 20.8003125-9.6 38.4-25.6003125 49.6003125-25.6003125 16.0003125-59.2003125 6.4003125-75.1996875-19.2-6.4003125-9.6-8.000625-20.8003125-8.000625-30.4003125v-54.399375h-54.399375c-30.4003125 1.599375-56.000625-22.400625-57.6-51.200625 0-11.199375 1.599375-22.3996875 7.9996875-30.399375 9.6-17.600625 28.8-27.200625 49.6003125-27.200625h54.399375v-54.399375c-1.599375-20.8003125 9.6-40.0003125 25.6003125-49.6003125 25.6003125-16.0003125 59.2003125-6.4003125 75.1996875 19.2 6.4003125 9.6 8.000625 20.8003125 8.000625 30.4003125v54.399375h54.399375c30.4003125 1.6003125 54.4003125 27.200625 52.8 57.6-1.599375 27.200625-24 49.6003125-52.8 51.200625z"  horiz-adv-x="1024" />

    
    <glyph glyph-name="wode1" unicode="&#59261;" d="M512.1 303.1c-69.4 0-134.7 27-183.8 76.1-49.1 49.1-76.1 114.4-76.1 183.8s27 134.7 76.1 183.8S442.7 823 512.1 823s134.7-27 183.8-76.1C745 697.8 772 632.5 772 563.1s-27-134.7-76.1-183.8c-49.1-49.2-114.4-76.2-183.8-76.2z m0 439.9c-99.2 0-180-80.7-180-180s80.7-180 180-180c99.2 0 180 80.7 180 180s-80.8 180-180 180zM870.2-55c-22.1 0-40 17.9-40 40 0 175.4-142.7 318.1-318.1 318.1C336.7 303.1 194 160.4 194-15c0-22.1-17.9-40-40-40s-40 17.9-40 40c0 53.7 10.5 105.9 31.3 155 20.1 47.4 48.7 90 85.3 126.5 36.5 36.5 79.1 65.2 126.5 85.3 49.1 20.8 101.2 31.3 155 31.3 53.7 0 105.9-10.5 155-31.3 47.4-20.1 90-48.7 126.5-85.3s65.2-79.1 85.3-126.5c20.8-49.1 31.3-101.2 31.3-155 0-22.1-17.9-40-40-40z"  horiz-adv-x="1024" />

    
    <glyph glyph-name="kuaijin" unicode="&#59431;" d="M678.992 841.776l490.704-422.352a45.744 45.744 0 0 0 0-66.384L679.04-71.51999999999998c-27.456-25.632-70.992-5.28-70.992 33.216V808.56c0 38.4 43.536 58.752 70.992 33.216z m-576 0l490.704-422.352a45.408 45.408 0 0 0 14.208-33.168 45.408 45.408 0 0 0-14.208-33.216L103.04-71.51999999999998C75.536-97.05600000000004 32-76.70399999999995 32-38.303999999999974V808.4639999999999C32 846.96 75.536 867.312 102.992 841.776z"  horiz-adv-x="1228" />

    
    <glyph glyph-name="bofang3" unicode="&#59262;" d="M512 810.666667c235.648 0 426.666667-191.018667 426.666667-426.666667s-191.018667-426.666667-426.666667-426.666667S85.333333 148.352 85.333333 384 276.352 810.666667 512 810.666667z m-58.538667-284.373334c-26.112 0-47.274667-21.162667-47.274666-47.274666v-202.368a47.274667 47.274667 0 0 1 71.253333-40.704l171.648 101.162666a47.274667 47.274667 0 0 1 0 81.450667L477.44 519.765333c-7.253333 4.266667-15.573333 6.528-23.978667 6.528z"  horiz-adv-x="1024" />

    
    <glyph glyph-name="hao" unicode="&#59263;" d="M984.191664 434.391562h-428.184484v415.402859c0 19.17244-19.17244 44.735692-44.735693 44.735692-25.563253 0-44.735692-25.563253-44.735692-51.126506v-415.402858H51.132936c-25.563253 6.390813-51.126506-19.17244-51.126505-44.735693s25.563253-44.735692 44.735692-44.735692h415.402859v-415.402858c6.390813-25.563253 25.563253-51.126506 51.126505-51.126506s44.735692 25.563253 44.735693 44.735692v421.793672h421.793671c25.563253 0 44.735692 25.563253 44.735693 44.735692s-12.781626 51.126506-38.34488 51.126506z"  horiz-adv-x="1027" />

    
    <glyph glyph-name="kuaijin-copy" unicode="&#59871;" d="M537.00799997-73.77599999999995l-490.704 422.352a45.744 45.744 0 0 0 1e-8 66.384L536.95999997 839.52000001c27.456 25.632 70.992 5.27999999 70.992-33.21600001L607.95199997-40.559999999999945c0-38.4-43.536-58.752-70.99199999-33.216z m576 1e-8l-490.704 422.35199999a45.408 45.408 0 0 0-14.208 33.168 45.408 45.408 0 0 0 14.208 33.216L1112.95999997 839.52C1140.46399996 865.056 1183.99999997 844.704 1183.99999997 806.304L1183.99999997-40.464000000000055C1183.99999997-78.96000000000004 1140.46399996-99.31200000000001 1113.00799997-73.77599998999995z"  horiz-adv-x="1228" />

    
    <glyph glyph-name="changan" unicode="&#59249;" d="M12.372167 333.834024c7.044007-58.519446 14.178323-120.38028 21.944792-182.150807 2.43831-18.603404 19.145251-31.968957 37.838963-30.433724 17.790634 1.806156 31.788341 18.513096 30.072493 37.838963-4.605697 47.863127-10.566011 95.635947-14.991092 143.499074-13.997707 152.529853 29.620954 284.830761 142.505688 390.490872 69.988535 65.382838 153.523238 104.215187 250.152571 110.356116 155.961549 9.933857 282.392451-47.772819 377.48655-170.862334 47.953435-62.131758 74.052386-134.377987 81.186701-212.945762 0.903078-10.024164 1.444925-20.138637 3.070465-30.072493 2.980157-18.874328 19.777405-31.065879 38.742041-28.717876 19.59679 2.43831 30.975571 15.352324 29.530646 34.497574-4.425082 58.248523-14.26863 115.413352-37.1165 169.598025C926.106359 675.558691 851.873357 762.344475 744.226475 815.626069 567.31352 903.224623 393.01949 894.284152 230.284858 781.128495 110.1755 697.593791 41.902813 578.387512 20.138637 433.533821c-4.605697-31.698033-5.057236-63.937913-7.76647-99.699797z m0 0M334.409736 337.988182c5.960314-148.195079 42.805891-288.623688 110.446424-421.376135 9.482318-18.693712 24.47341-27.092336 41.902813-23.480025 14.629862 3.070465 27.092336 16.526325 27.092337 32.23988 0 8.759855-2.980157 18.061557-7.044008 26.008643-33.233266 65.382838-58.700062 134.377987-76.039157 205.630832-16.797248 69.266073-24.202487 139.796455-25.828027 210.958991-1.354617 57.887292 46.147279 108.820884 102.318723 110.627039 60.41591 1.896464 110.446424-43.708969 111.981656-104.395802 2.709234-106.292266 23.480025-208.340065 69.717612-304.337243 16.255402-33.684805 36.30373-65.653761 55.719905-97.803334 9.753241-16.255402 29.80157-19.687098 45.876356-10.114472 16.526325 9.843549 21.944792 31.42711 11.559397 49.488668-9.301702 16.255402-20.048329 31.788341-29.350031 48.043742-38.38081 67.640533-62.944528 140.338301-75.136079 216.919305-4.966928 31.517418-5.870006 63.847606-6.9537 95.816563-2.709234 84.979628-56.893906 155.239086-135.642296 174.474645-87.959785 21.493253-174.384337-24.834642-208.15945-111.078579-12.101243-31.336802-15.442632-63.757298-12.462475-97.622718z m0 0M514.122233 642.14481c121.102743 1.535232 226.130699-82.721933 256.112885-205.450216 7.134315-29.079108 9.482318-59.60314 11.01755-89.675633 5.057236-94.552253 32.962342-181.518652 82.541317-261.711967 11.559397-18.603404 31.246494-24.202487 48.314667-13.997707 17.880942 10.746627 22.667255 28.717876 11.288473 48.675897-26.189258 45.966664-50.301438 93.017021-59.964371 145.395537-6.9537 36.394038-11.198166 73.239615-12.733398 110.265809-2.889849 78.658083-26.008643 149.549696-75.226387 210.958991-55.90052 69.536996-128.869212 110.1755-217.09992 122.276744-71.523768 9.843549-139.525531-2.348002-203.192522-37.297116-13.184937-7.224623-21.402946-17.610019-21.132022-32.781727 0.270923-12.64309 5.960314-22.938178 17.700326-28.9888 12.191551-6.321545 23.299409-2.709234 35.490961 1.535232 29.711262 10.385396 59.693447 19.687098 90.036864 27.995415 11.649705 3.25108 24.563718 1.986771 36.845577 2.799541zM175.91957 334.104948c4.425082-119.748126 27.272952-238.051327 67.73084-350.845754 7.134315-20.138637 24.563718-29.711262 45.605433-25.105565 15.171708 3.341388 24.744334 15.262016 23.299409 30.794956-0.81277 8.669548-2.709234 17.15848-5.599083 25.376488-24.924949 71.072229-43.347738 143.950613-52.288209 218.635153-7.676162 64.47976-15.984478 129.320751-4.244466 194.432666 5.870006 33.504189 18.693712 65.382838 37.838963 93.558867 7.224623 10.656319 12.191551 21.854485 7.585854 34.768499-4.06385 11.469089-12.281859 19.325866-24.654026 21.402945-12.823706 2.077079-23.570332-1.986771-31.065879-13.004321-32.23988-46.779434-53.552518-98.074257-60.235294-154.606932-3.070465-24.924949-2.799541-50.301438-3.973542-75.407002zM479.53435 354.333892c3.070465-120.741512 29.350031-235.974248 82.180087-344.704824 14.991093-30.885263 32.420496-60.506217 49.217744-90.398095 11.740012-20.770791 30.975571-26.550489 49.669283-15.984479 17.97125 10.20478 22.84787 31.246494 10.295088 51.294824-30.343417 48.766205-56.442367 99.609489-76.039157 153.613546-30.794955 84.708704-44.973278 172.487874-47.230973 262.344122-0.632155 24.563718-15.262016 39.916042-36.394038 38.742041-17.880942-0.993386-30.794955-13.726784-31.607726-31.698034-0.361231-7.585854-0.090308-15.352324-0.090308-23.209101z m-349.942675-459.666637c23.028486 0.180616 38.832349 19.145251 32.420495 41.63189-7.044007 24.563718-16.074786 48.58559-25.376488 72.426845-5.779698 14.629862-27.272952 20.228944-45.605432 13.365552-16.887556-6.321545-26.098951-22.306023-20.499868-39.464503 7.495546-22.486639 15.984478-44.792662 25.28618-66.556839 6.321545-14.720169 18.964635-21.493253 33.775113-21.402945zM1001.693977 2.855984c-0.180616 19.958021-12.281859 33.05265-30.524033 33.142958-20.951407 0.180616-37.56804-14.810477-37.568039-33.775113 0-17.15848 17.97125-33.504189 36.755269-33.504189 18.332481 0 31.607726 14.358938 31.336803 34.136344z m0 0"  horiz-adv-x="1024" />

    
    <glyph glyph-name="daochu" unicode="&#59233;" d="M639.099 24.65H168.363V714.093h470.736V823.108H60.857l-0.001-910.491h578.243v112.03zM427.042 434.902v-136.784h275.674v-165.406l257.36 236.66-257.36 236.657V434.9H427.042z"  horiz-adv-x="1024" />

    
    <glyph glyph-name="chongzhi1" unicode="&#59248;" d="M589.4144 853.947733v-67.857066H145.408v-821.794134h686.626133V514.389333h67.857067v-550.0928c0-35.908267-31.9488-67.857067-67.857067-67.857066H145.408c-35.908267 0-67.857067 31.9488-67.857067 67.857066V786.090667c0 35.908267 31.9488 67.857067 67.857067 67.857066h444.0064zM760.490667 761.105067V836.608c0 22.664533 15.1552 37.6832 37.6832 37.6832 22.664533 0 37.6832-15.1552 37.6832-37.6832v-75.502933h75.502933c22.664533 0 37.6832-15.1552 37.6832-37.6832 0-22.664533-15.1552-37.6832-37.6832-37.6832h-75.502933v-75.502934c0-22.664533-15.1552-37.6832-37.6832-37.6832-22.664533 0-37.6832 15.1552-37.6832 37.6832V685.738667h-75.502934c-22.664533 0-37.6832 15.1552-37.6832 37.6832 0 22.664533 15.1552 37.6832 37.6832 37.6832H760.490667z m0 0M613.853867 567.5008c-11.741867 11.741867-30.856533 11.741867-42.734934 0L488.789333 485.034667l-82.3296 82.3296c-11.741867 11.741867-30.856533 11.741867-42.734933 0-11.741867-11.741867-11.741867-30.856533 0-42.734934l70.178133-70.178133H397.312c-16.7936 0-30.446933-13.653333-30.446933-30.446933s13.653333-30.446933 30.446933-30.446934h61.0304v-61.0304H397.312c-16.7936 0-30.446933-13.653333-30.446933-30.446933s13.653333-30.446933 30.446933-30.446933h61.0304v-67.447467c0-16.657067 13.5168-30.3104 30.3104-30.3104h0.682667c16.657067 0 30.3104 13.5168 30.3104 30.3104v67.447467h61.0304c16.7936 0 30.446933 13.653333 30.446933 30.446933s-13.653333 30.446933-30.446933 30.446933h-61.0304V393.557333h61.0304c16.7936 0 30.446933 13.653333 30.446933 30.446934s-13.653333 30.446933-30.446933 30.446933h-36.864l70.178133 70.178133c11.605333 11.8784 11.605333 30.993067-0.136533 42.871467z m0 0"  horiz-adv-x="1024" />

    
    <glyph glyph-name="shenfenzhengzhengmian" unicode="&#59354;" d="M1404.827-127.962V-108.4h83.246v82.775h19.657v-102.337h-102.903z m83.246 1004.324h-83.246V895.925h102.903v-102.262h-19.657V876.362z m-73.364-61.867a55.83 55.83 0 0 0 16.598-39.842v-768.534c-0.013-31.084-25.361-56.289-56.64-56.314H123.483c-31.273 0.044-56.609 25.236-56.64 56.314V774.653c0.044 31.072 25.38 56.244 56.64 56.282h1251.209c15.07 0 29.281-5.83 40.017-16.44z m-39.986-8.475H123.483V806c-17.427-0.019-31.55-14.053-31.568-31.373v-768.534c0-17.289 14.166-31.399 31.568-31.399h1251.184c17.401 0 31.593 14.085 31.593 31.399V774.653c0 8.374-3.286 16.27-9.248 22.201a32.027 32.027 0 0 1-22.289 9.166zM912.397 158.588c1.03 49.158 10.133 133.051 59.354 175.732l67.766-0.615 63.463-104.059 11.961 77.812-8.65 14.11 0.647 14.499a280.846 280.846 0 0 0 37.712-0.05l0.703-14.5-8.625-14.103 12.012-78.44 49.29 105.227 74.965 2.538c38.743-36.405 63.589-122.189 57.495-178.15H912.397z m315.216 288.68c-5.164-18.338-11.202-35.331-19.852-49.58-9.882-16.446-22.949-29.098-41.419-35.908-8.255-2.965-29.338-4.385-49.623-4.033-19.556 0.245-39.213 2.186-47.035 5.78-16.798 7.651-28.609 20.58-37.51 36.65-7.671 13.733-13.112 29.727-17.905 46.62-7.847 4.083-13.74 11.038-17.729 20.53-4.334 10.316-6.313 23.873-6.062 39.942l0.076 5.485 4.586 3.04a54.893 54.893 0 0 0 3.511 2.187c-5.164 63.142-3.21 86.487 20.386 113.174 46.005 37.429 151.464 36.104 198.047 2.173 31.744-29.803 33.949-63.192 24.199-114.72a80.021 80.021 0 0 0 4.56-2.814l4.587-3.065 0.056-5.46c0.27-15.743-1.633-29.08-5.792-39.37-3.838-9.392-9.48-16.397-17.081-20.63z m-0.572 54.718a14.33 14.33 0 0 1-5.44 0.823l-9.355-0.597-1.727 9.147a119.035 119.035 0 0 1-9.706 29.652c-29.834-5.81-74.187-10.893-109.242 8.739-13.513 7.551-33.251-7.922-49.44-6.326a121.624 121.624 0 0 1-10.932-32.065l-1.809-9.492-9.58 0.917a14.612 14.612 0 0 1-5.585-0.672 26.385 26.385 0 0 1-2.588-1.024c0.226-10.51 1.702-19.205 4.466-25.738 2.406-5.73 5.742-9.443 10.108-10.812l5.61-1.747 1.552-5.603c4.718-17.27 9.932-33.641 17.358-46.916 6.866-12.313 15.668-22.15 27.773-27.685 5.12-2.337 21.416-3.638 38.441-3.89 18.1-0.25 36.13 0.673 42.097 2.872 13.413 4.906 23.094 14.449 30.588 26.906 8.023 13.382 13.765 30.375 18.803 49.014l1.458 5.353 5.314 1.847c4.21 1.47 7.495 5.308 9.876 11.088 2.607 6.426 4.04 15.002 4.316 25.286a16.07 16.07 0 0 1-2.356 0.923zM332.643 438.95H621.53v-49.309H332.643v49.31z m0 122.742H621.53v-49.315H332.643v49.315z m0 122.736H621.53v-49.31H332.643v49.31zM201.413 438.95h95.93v-49.309h-95.93v49.31z m0 122.742h95.93v-49.315h-95.93v49.315z m0 122.736h95.93v-49.31h-95.93v49.31z m254.713-615.864H201.414v49.334h254.712v-49.334z m464.249 0H485.91v49.334h434.465v-49.334zM19.682 793.663H0V895.925h102.928v-19.563H19.682v-82.7z m0-902.063h83.246v-19.562H0V-25.625h19.682v-82.775z"  horiz-adv-x="1507" />

    
    <glyph glyph-name="shenfenzhengfanmian" unicode="&#59247;" d="M1387.387674-124.800909v19.485374h82.158478V-23.011644h19.485373v-101.789265h-101.643851z m82.158478 998.116444h0.145413-82.303891V892.800909h101.643851v-101.643851h-19.485373V873.315535z m-72.706618-61.800624c10.469753-10.32434 16.286282-24.429423 16.140869-39.116161l0.145414-763.855722c0-30.536779-24.865663-55.402442-55.547856-55.402443H121.856291c-30.536779 0-55.402442 24.865663-55.402443 55.402443V772.253337c0 30.536779 24.865663 55.402442 55.402443 55.402443h1235.72167c14.686737 0 28.937234-5.816529 39.261573-16.140869z m-39.11616-7.561489H121.856291c-17.449588 0-31.700085-14.250497-31.700085-31.700085v-763.855723c0-17.595001 14.250497-31.700085 31.700085-31.700085h1235.72167c16.577109 0 30.245953 12.650951 31.700085 29.082647V772.39875c0 8.433968-3.344504 16.431696-9.306447 22.393639-5.816529 5.816529-13.959671 9.161034-22.248225 9.161033zM462.850327 218.955978h732.30105v-49.00426H462.850327v49.00426z m142.650383 252.728203h589.650667v-49.004261H605.50071v49.004261z m0 122.001704h589.650667v-49.149674H605.50071v49.149674z m0 123.16501h589.650667V667.701221H605.50071v49.149674z m-123.019597-245.166714H577.290542v-49.004261h-94.664015v49.004261z m0 122.001704H577.290542v-49.00426h-94.664015v49.00426z m0 122.001704H577.290542v-49.00426h-94.664015V715.687589z m-100.771371-229.752911l20.503266-37.952855c-9.015621 6.689009-20.794093 7.997728-31.118433 3.489918-10.760579-7.270662-18.758307-17.885828-22.829877-30.391366l-16.431696 25.011076v-12.796364h-107.169554v12.796364l-14.686737-25.011076c-4.071571 12.360125-12.069298 22.975291-22.829878 30.391366C172.023857 459.760295 155.592161 445.218972 155.592161 445.218972l21.666572 41.442772c-48.713434 54.529963-45.514343 137.706333 7.270662 188.310139s136.397614 50.603806 189.328032 0c52.785004-50.603806 56.129509-133.780176 7.270662-188.310139l0.581653-0.727066z m-166.934394 126.073274l-3.489918 9.8881-5.234876-8.724794H197.761999l7.561489-6.398182v-9.8881l8.143141 5.234876 8.143141-5.234876-4.653224 8.724794 7.561489 6.398182h-9.742687z m-2.326612-117.34848h140.032945l-14.105083 22.102811h-111.822778l-14.105084-22.102811z m93.209884 22.829878l-4.653224 14.541323h-39.261573l-5.234877-14.541323h49.149674zM237.023573 586.26981l7.561488-6.398183v-9.8881l8.143141 5.234877 8.143141-5.234877-4.653223 8.724794 8.143141 6.398183h-10.615166l-3.489918 11.051406-3.489917-9.8881H237.023573z m51.040045 53.07583l-8.143141 20.939506-8.143141-20.939506h-22.248225l17.013349-14.541323-5.234877-22.102812 18.758307 12.214712 18.758308-12.214712-5.234877 22.102812 17.013349 14.541323h-22.539052z m35.04459-54.239136l-4.071571 11.051406-3.489917-9.8881h-9.8881l7.561488-6.398183v-9.8881l8.143141 5.234877 8.143141-5.234877-6.398182 8.724794 7.561488 6.398183h-7.561488z m31.700085 32.136325l-3.489918 9.8881-3.489917-9.8881h-9.8881l7.561488-6.398183v-9.8881l8.143141 5.234877 8.143141-5.234877-4.653223 9.8881 7.561488 6.398183H354.808293z m59.76484-447.145698H198.925305v49.004261H414.427719v-49.004261z m0-95.827321H198.925305v49.00426H414.427719v-49.00426z m780.578244 0H462.850327v49.00426h732.30105v-49.00426zM19.485373 791.157058H0V892.800909h101.643851v-19.485374H19.485373v-82.158477z m0-896.472593H101.789264V-124.800909H0v101.789265h19.485373v-82.303891z m0 0"  horiz-adv-x="1489" />

    
    <glyph glyph-name="weibiaoti517" unicode="&#59245;" d="M192.287933 33.601538c-15.953344 0-29.006637 13.053294-29.006637 29.007661l0 639.423111c0 15.954367 13.053294 29.007661 29.006637 29.007661l639.424134 0c15.954367 0 29.007661-13.053294 29.007661-29.007661l0-639.423111c0-15.954367-13.053294-29.007661-29.007661-29.007661L192.287933 33.601538z"  horiz-adv-x="1024" />

    
    <glyph glyph-name="bofang2" unicode="&#59246;" d="M806.34046745 421.21660615C764.60562564 447.57545451 279.16351026 757.2919161899999 255.0012335 772.6679112 224.24924426 792.43704709 193.49725501 766.0781995 193.49725501 735.32621027v-702.90260934c0-35.14513013 32.94856006-52.71769596 59.30740766-37.34170172 35.14513013 21.96570671 522.78381555 331.68216917 553.53580478 351.45130505 26.35884759 17.57256505 26.35884759 59.30740765 0 74.68340189z"  horiz-adv-x="1024" />

    
    <glyph glyph-name="xiazaizhong" unicode="&#59243;" d="M471.135726-97.114737c11.198166-11.198166 25.828027-15.352324 40.548197-14.629861 14.629862-0.722462 29.350031 4.154158 40.457888 14.629861L922.945586 264.658259c20.951407 20.228944 20.951407 53.733133 0 74.052386-9.753241 9.753241-23.750948 15.352324-37.748655 15.352324-13.997707 0-27.905106-5.599083-37.748655-15.352324L566.139518 64.265279V827.456389c0 28.627569-23.750948 52.378517-53.733133 52.378517-29.350031 0-53.733133-23.750948-53.733133-52.378517v-763.913572L176.461416 337.988182c-9.753241 9.753241-23.750948 15.352324-37.748655 15.352324-13.997707 0-27.905106-5.599083-37.748655-15.352324-20.951407-20.228944-20.951407-53.733133 0-74.052385l370.17162-361.050534z"  horiz-adv-x="1024" />

    
    <glyph glyph-name="xiazaiwancheng" unicode="&#59244;" d="M389.136255 28.142164c-6.231237 0-12.64309 1.264309-19.054943 3.612312l-0.361231 0.090307c-2.257695 0.993386-4.06385 2.167387-5.237852 3.070465l-0.180615 0.090308c-0.180616 0.090308-0.361231 0.270923-0.541847 0.361231-0.451539 0.270923-0.903078 0.541847-1.354617 0.722462-2.709234 1.444925-6.050622 3.25108-9.211394 6.231238l-0.180616 0.180615-0.361231 0.361232-0.361231 0.361231L26.821413 364.087133c-9.933857 9.843549-15.532939 22.938178-15.623247 36.935885-0.090308 13.997707 5.237852 27.092336 15.0814 37.026193C36.123115 448.073375 49.39836 453.58215 63.486374 453.58215c13.817091 0 26.911721-5.328159 36.664962-15.0814l287.359379-283.295529 533.719023 568.216598c9.843549 10.475703 23.66064 16.526325 38.109886 16.526325 13.365553 0 26.008643-5.057236 35.761884-14.088015 20.951407-19.777405 21.944792-53.010671 2.257695-74.052386L426.794603 44.307258c-0.090308-0.090308-0.270923-0.180616-0.361231-0.361231l-0.180616-0.180616c-3.070465-3.160773-6.411853-5.147544-9.211394-6.682776l-0.090308-0.090308c-0.541847-0.270923-1.083693-0.632155-1.62554-0.993385-0.090308-0.090308-0.451539-0.361231-0.451539-0.361231-1.264309-0.993386-3.160773-2.528618-5.779699-3.522004-6.321545-2.618926-13.094629-3.973543-19.958021-3.973543z"  horiz-adv-x="1024" />

    
    <glyph glyph-name="sao" unicode="&#59242;" d="M101.33 533.3299999999999c-20.53 0-37.33 16.8-37.33 37.33v168C64 790.9300000000001 105.07 832 157.33 832h168c20.53 0 37.33-16.8 37.33-37.33 0-20.53-16.8-37.33-37.33-37.33h-168c-9.33 0-18.67-9.34-18.67-18.67v-168c0.01-20.54-16.79-37.34-37.33-37.34z m821.34 0c-20.53 0-37.33 16.8-37.33 37.33v168c0 9.33-9.34 18.67-18.67 18.67h-168c-20.53 0-37.33 16.8-37.33 37.33 0 20.53 16.8 37.33 37.33 37.33h168c52.26 0 93.33-41.07 93.33-93.33v-168c0-20.53-16.8-37.33-37.33-37.33z m-56-597.33h-168c-20.53 0-37.33 16.8-37.33 37.33 0 20.53 16.8 37.33 37.33 37.33h168c9.33 0 18.67 9.34 18.67 18.67v168c0 20.53 16.8 37.33 37.33 37.33 20.53 0 37.33-16.8 37.33-37.33v-168c0-52.26-41.07-93.33-93.33-93.33z m-541.34 0h-168C105.07-64 64-22.92999999999995 64 29.33000000000004v168c0 20.53 16.8 37.33 37.33 37.33 20.53 0 37.33-16.8 37.33-37.33v-168c0-9.33 9.34-18.67 18.67-18.67h168c20.53 0 37.33-16.8 37.33-37.33 0.01-20.53-16.79-37.33-37.33-37.33z m0 0M922.67 337.33000000000004H101.33c-20.53 0-37.33 16.8-37.33 37.33C64 395.2 80.8 412 101.33 412h821.33c20.53 0 37.33-16.8 37.33-37.33 0.01-20.54-16.79-37.34-37.32-37.34z m0 0"  horiz-adv-x="1024" />

    
    <glyph glyph-name="shouquan" unicode="&#59241;" d="M864.80341504 264.54584551000005c-3.79323374 3.79323374-7.52106675 5.62444988-13.21091663 5.62444916h-54.80568342V625.0338284100001c0 41.33316532-30.28046775 75.07986313-69.91321766 82.60092916-3.79323374 1.83121613-5.68984988 1.83121613-9.48308361 1.83121613H225.90517401c-39.63274991 0-73.70645066-31.91548169-73.7064514-71.2866294v-114.58181156c0-11.31429976 7.52106675-18.76996579 18.90076724-18.76996579h90.77600178v-362.31919976c0-46.95761446 37.80153377-84.49754603 85.08615117-84.49754601h417.77888904c58.53351715 0 105.81813456 46.95761446 105.81813454 105.16412867V251.40032888999997c-0.06540073 5.62444988-1.9620176 9.35228288-5.75525134 13.14551662z m-604.889941 275.99043687H190.00025638V638.17934431c0 18.76996579 15.10753351 33.81209856 34.07370076 33.81209857h1.89661687c18.90076724 0 34.07370076-14.97673204 34.07370076-33.81209858v-97.64306192h-0.13080073z m149.3095182-283.51150361v-1.83121614c0-1.83121613-1.89661687-3.79323374-1.89661688-5.62444989v-101.43629566c0-30.01886481-24.59061713-52.58206434-52.97446729-52.58206434s-52.974468 24.45981567-52.974468 52.58206434V640.01056045c0 13.14551591-3.79323374 24.45981567-9.41768288 33.81209856h421.57212278c24.59061713-1.89661687 45.32260052-22.49779879 45.32259978-48.78883059V270.17029465999997l-332.69273788-1.83121612c-7.45566602 0-15.10753351-5.68984988-16.93874963-11.31429977z m423.46873964-93.91522964c0-37.53993157-30.215067-67.62419711-68.01660077-67.62419712H426.2271426c11.37970049 15.04213277 17.00415038 33.81209856 17.00415039 52.58206433V230.73374694999995l389.39503817 1.89661615v-69.52081397h0.06540072zM707.90743009 360.29229055999997c0 11.31429976-7.52106675 18.76996579-18.90076726 18.7699658-306.27090461 1.83121613-309.99873761 0-313.79197063-1e-8-9.48308363-1.83121613-17.00415038-11.31429976-15.1075335-22.49779879 1.89661687-9.35228288 9.4176829-14.97673204 17.00415038-14.97673204h311.96075449c11.31429976-0.06540073 18.83536651 7.39026528 18.83536652 18.70456504z m-328.96490488 116.41302772h79.39630128c11.37970049 0 18.90076724 7.52106675 18.90076651 18.76996579 0 11.31429976-7.52106675 18.76996579-18.90076651 18.76996577H378.94252521c-11.37970049 0-18.90076724-7.52106675-18.90076725-18.76996577s9.48308363-18.76996579 18.90076725-18.76996579z m238.1889031-69.45541324c52.974468 0 96.46585165 43.16438144 96.46585166 95.74644578 0 52.51666361-43.49138438 95.74644579-96.46585166 95.74644578s-96.40045092-43.16438144-96.40045092-95.74644578 43.55678439-95.74644579 96.40045092-95.74644578z m0 153.95295999c32.11168388 0 58.66431789-26.29103182 58.66431789-58.27191496 0-31.98088241-26.42183328-58.27191423-58.66431789-58.2719142-32.11168388 0-58.53351715 26.29103182-58.53351715 58.2719142 0 31.98088241 26.42183328 58.27191423 58.53351715 58.27191496z m0 0"  horiz-adv-x="1024" />

    
    <glyph glyph-name="zhucechenggong" unicode="&#59240;" d="M133.836141 151.231678h759.94003l96.71964-132.571831c35.852192-50.21113 16.165094-91.391481-46.598818-91.391481H74.68454c-60.957756 0-80.644854 39.464503-44.792662 89.585325l103.944263 134.377987z m0 0M237.780404 792.958815h485.765588c62.763912 0 112.884734-50.21113 112.884734-112.884734v-543.020725c0-62.763912-50.21113-112.884734-112.884734-112.884734H237.780404c-62.763912 0-112.884734 50.21113-112.884734 112.884734V680.074081c-0.090308 62.673604 50.21113 112.884734 112.884734 112.884734z m0 0M205.540524 792.958815h487.481436c62.763912 0 112.884734-50.21113 112.884734-112.884734v-543.020725c0-62.763912-50.21113-112.884734-112.884734-112.884734H205.540524c-62.763912 0-112.884734 50.21113-112.884734 112.884734V680.074081c-0.090308 62.673604 50.120822 112.884734 112.884734 112.884734z m0 0M644.707293 552.830408h-360.328071c-16.165094 0-30.524032-12.552782-30.524032-28.627568 0-16.165094 12.552782-28.627569 30.524032-28.627569h360.237764c16.165094 0 30.524032 12.552782 30.524032 28.627569 0 16.074786-14.358938 28.627569-30.433725 28.627568z m0 0M626.736044 568.905194H268.214128c-16.165094 0-30.524032-12.552782-30.524032-28.627568 0-16.165094 12.552782-28.627569 30.524032-28.627569h358.521916c16.165094 0 30.524032 12.552782 30.524032 28.627569-1.896464 16.074786-14.449246 28.627569-30.524032 28.627568z m0 0M642.81083 377.181762h-358.521916c-16.165094 0-30.524032-12.552782-30.524032-28.627569 0-16.165094 12.552782-28.627569 30.524032-28.627568h358.521916c16.165094 0 30.524032 12.552782 30.524032 28.627568-1.806156 14.178323-14.358938 28.627569-30.524032 28.627569z m0 0M626.736044 391.450392H268.214128c-16.165094 0-30.524032-12.552782-30.524032-28.627568 0-16.165094 12.552782-28.627569 30.524032-28.627569h358.521916c16.165094 0 30.524032 12.552782 30.524032 28.627569-1.896464 16.074786-14.449246 28.627569-30.524032 28.627568z m0 0M347.143134 697.955022c-34.136344 0-60.957756 21.493253-60.957756 46.598819v1.715848c0 25.105565 26.911721 46.598818 60.957756 46.598818h327.997884c3.612311-39.464503-16.165094-66.376224-30.524032-77.032543-14.358938-10.746627-34.136344-17.97125-50.21113-17.971249H347.143134v0.090307z m0 0M574.718758 722.97028H330.97804c-32.23988 0-59.151601 26.911721-59.1516 59.1516s26.911721 59.151601 59.1516 59.151601h243.740718c32.23988 0 59.151601-26.911721 59.151601-59.151601v-1.715848c0-16.165094-7.224623-30.524032-17.97125-41.180351-10.656319-10.746627-25.015257-16.255402-41.180351-16.255401z m0 0M786.400212-18.095423c118.303201 0 215.113149 95.003792 215.113149 213.216686 0 118.303201-95.003792 213.216686-215.113149 213.216686-120.019049 0-198.948055-95.003792-198.948056-213.216686 0-118.212894 80.735162-213.216686 198.948056-213.216686z m0 0M541.756416 198.823882c0-74.955463 40.367581-144.221536 105.660111-181.60896 65.473146-37.477732 146.027692-37.477732 211.500838 0 65.473146 37.387424 105.840727 106.653497 105.840727 181.60896s-40.367581 144.221536-105.660112 181.60896c-65.473146 37.477732-146.027692 37.477732-211.500837 0-65.473146-37.56804-105.840727-106.743805-105.840727-181.60896z m0 0M708.464591 213.092513c-14.358938 16.165094-35.129729 25.828027-53.733133 7.224623-19.958021-20.048329-5.328159-44.792662 5.328159-55.53929l62.763912-62.763912c8.940471-10.746627 37.56804-12.552782 52.017286 1.715848L886.009701 198.823882c10.746627 8.940471 30.524032 28.627569 12.552782 52.017286-21.493253 23.299409-43.076815 8.940471-53.733133 0l-91.481788-79.561161-44.882971 41.812506z m0 0"  horiz-adv-x="1024" />

    
    <glyph glyph-name="youxiang3" unicode="&#59236;" d="M737.091661 225.490899L1310.167575 761.112471A151.530966 151.530966 0 0 1 1159.615808 895.997062H151.775765A151.775765 151.775765 0 0 1 0 761.112471l574.299913-535.621572a119.707015 119.707015 0 0 1 162.791748 0zM0 672.984607V271.75802699999997l215.668467 199.756491z m781.400392-494.984835a184.823714 184.823714 0 0 0-251.654011 0L263.159593 426.960987 0 183.14056400000004v-159.609353a151.530966 151.530966 0 0 1 151.775765-151.530966h1007.840043a151.530966 151.530966 0 0 1 151.530966 151.530966v159.609353l-263.159593 244.799622z m314.077915 293.759546l215.668467-199.756491V672.984607z"  horiz-adv-x="1311" />

    
    <glyph glyph-name="mima3" unicode="&#59237;" d="M811.759-65.99000000000001H212.187c-51.691 0-93.933 39.166-93.933 87.78V394.388c0 48.615 41.692 87.67 93.933 87.67h23.18v86.957C235.367 719.744 359.347 834 512 834c152.488 0 276.577-114.256 276.577-264.987v-87.23h23.18c51.745 0 93.988-39.221 93.988-87.89v-372.542c0-48.175-42.242-87.34-93.986-87.34zM472.394 210.75300000000004v-97.667c0-20.106 17.798-36.913 39.606-36.913 21.752 0 39.385 16.808 39.385 36.913v97.667c23.73 12.579 39.605 36.474 39.605 63.885 0 40.924-35.485 74.322-78.99 74.322s-79.046-33.398-79.046-74.322c0-27.411 15.875-51.251 39.44-63.885z m237.193 360.953c0 102.226-88.604 185.392-197.587 185.392-109.038 0-197.642-83.276-197.642-185.392v-89.593h395.229v89.593z"  horiz-adv-x="1024" />

    
    <glyph glyph-name="xingzhuangjiehe" unicode="&#59238;" d="M832 64V768a64 64 0 0 1-64 64H256a64 64 0 0 1-64-64v-704 64h640v-64zM256 896h512a128 128 0 0 0 128-128v-768a128 128 0 0 0-128-128H256a128 128 0 0 0-128 128V768a128 128 0 0 0 128 128z m256-960a64 64 0 1 1 0 128 64 64 0 0 1 0-128z"  horiz-adv-x="1024" />

    
    <glyph glyph-name="yanzhengma" unicode="&#59239;" d="M895.744 622.72a59.2 59.2 0 0 1-46.72 51.936A1103.36 1103.36 0 0 0 697.92 709.44a561.28 561.28 0 0 0-135.008 78.912 61.76 61.76 0 0 1-72.16 0 354.112 354.112 0 0 0-136.032-78.4 507.264 507.264 0 0 0-146.944-36.32 55.04 55.04 0 0 1-46.208-51.936S160 491.36 160 376.64C160 168.96000000000004 405.056-32 527.616-32c122.528 0 330.24 141.76 363.456 405.504 8.32 155.776 2.56 248.704 2.56 248.704l2.112 0.544z m-133.44-160.416l-256-241.44c-11.52-10.976-29.12-12.704-42.56-4.16l-6.72 5.728-141.248 146.912a35.264 35.264 0 0 0 51.904 47.776L484 295.10400000000004l230.528 218.08a35.264 35.264 0 1 0 47.776-51.936v1.056z"  horiz-adv-x="1024" />

    
    <glyph glyph-name="zhongbo" unicode="&#59235;" d="M826.04533 191.14772l150.362466 220.351001H870.025223c-14.178323 215.654996-192.987741 386.51733-411.984126 386.51733-228.298086 0-412.796896-185.31158-412.796896-413.880589C45.244201 155.747068 230.284858-29.65482 458.582944-29.65482c102.318723 0 195.787283 37.477732 268.033512 99.338566l-55.268365 71.252845c-58.79037-51.746362-134.468295-80.373931-212.765147-80.373931-178.538495 0-323.301878 145.034306-323.301879 323.572802 0 178.899727 144.763383 323.843725 323.301879 323.843725 169.236793 0 307.588323-130.494753 321.495723-296.390158H675.592557l150.452773-220.441309z m0 0"  horiz-adv-x="1024" />

    
    <glyph glyph-name="shuoming" unicode="&#59232;" d="M510.65557023 862.55834106c264.44337829 0 478.85060896-214.40723066 478.85060896-478.85060767 0-264.44337829-214.40723066-478.85060896-478.85060896-478.85060896-264.44337829 0-478.85060896 214.40723066-478.85060768 478.85060896-0.11690716 264.44337829 214.2903235 478.85060896 478.85060768 478.85060767z m0-59.85632597c-231.35872906 0-418.99428301-187.63555395-418.99428172-418.9942817 0-231.35872906 187.63555395-418.99428301 418.99428172-418.994283 231.35872906 0 418.99428301 187.63555395 418.994283 418.994283-0.11690716 231.47563621-187.63555395 418.99428301-418.994283 418.9942817z m39.98215628-598.56326087v-73.53443157h-69.91031862v73.53443157H550.63772651z m-28.17456008 448.92244533c43.7231751 0 80.08121713-12.85975807 109.07412474-38.57927162 29.10981478-25.71951485 43.60626925-59.97323312 43.60626925-102.76115352 0-19.1727293-3.74102013-36.59185505-11.10615453-52.14047268-7.48204027-15.54861633-23.38137679-35.07206582-47.5811024-58.45344259-24.19972562-23.38137679-40.33287647-39.86524782-48.28254408-49.68542744-8.18348193-10.52162-14.3795473-22.44612208-18.00366026-35.30588015-4.20864749-13.67810561-5.96225104-32.03248737-5.37771782-55.18004982h-63.59734608c0 26.88858388 2.22123091 48.39945124 6.54678555 64.41569492 4.32555465 16.13315085 10.75543302 30.16197665 19.40654363 42.2033859 8.6511093 11.92450206 24.19972562 29.57744213 46.879662 52.95882021 22.56302923 23.38137679 37.05948369 40.2159693 43.60626796 50.85449517 6.54678556 10.52162 9.70327116 26.30404937 9.70327246 47.11347505 0 20.92633285-7.48204027 39.39762046-22.3292162 55.53077133-14.96408181 16.01624368-36.47494917 24.08281845-64.88332229 24.08281845-63.83116042 0-95.74674062-37.9947384-95.74674062-113.86730676h-63.48043893c0.93525471 34.60443847 5.02699633 60.90848783 12.27522355 78.9121481 7.13132007 18.12056743 18.70510195 34.13681111 34.60443848 48.28254408 15.78242937 14.14573297 33.5522766 24.55044581 52.95881891 31.3310457 19.87417099 7.01441291 40.80050382 10.40471284 61.72683668 10.28780567z m0 0"  horiz-adv-x="1024" />

    
    <glyph glyph-name="jilu" unicode="&#59234;" d="M512-4.5556618699999945c-217.28824853 0-394.08981333 176.8015648-394.08981333 394.08981334 0 217.28824853 176.8015648 394.08981333 394.08981333 394.08981333 57.5260448 0 115.63463147-13.2528352 168.06343147-38.15651627 52.13752853-24.7580448 99.03217813-61.4582048 135.73233706-105.87704853l3.20398294-3.93216-52.4288-52.4288-3.7865248 4.80597333c-29.70965333 37.57397333-68.3030752 68.44871147-111.4112 89.42023147-43.3993952 21.1171552-91.45912853 32.18545813-139.22759147 32.18545707-176.51029333 0-320.25258667-143.59665813-320.25258667-320.25258667 0-176.51029333 143.59665813-320.25258667 320.25258667-320.25258667 176.51029333 0 320.25258667 143.59665813 320.25258667 320.25258667v5.53415147h73.98286293v-5.53415147c-0.29127147-217.14261333-177.0928352-393.94417813-394.3810848-393.94417707zM837.78673813 389.53415147c0-179.56864-146.21809813-325.78673813-325.78673813-325.78673814S186.21326187 209.96551147000002 186.21326187 389.53415147 332.43136 715.32088853 512 715.32088853c99.17781333 0 193.40401813-46.16647147 254.86222187-123.79022186l44.56448 44.56448c-73.40032 88.9833248-183.5008 142.14030187-299.42670187 142.14030186-214.22990187 0-388.70129813-174.32576-388.70129813-388.70129706S297.62446187 0.9784885300000496 512 0.9784885300000496s388.70129813 174.32576 388.70129813 388.70129814h-62.91456z m0 0M475.00856853 352.54272000000003V583.3750752000001h73.98286294v-156.84949333h156.84949333v-73.98286187zM480.54272 577.8409248v-219.76405333h219.76405333v62.91456H543.45728V577.8409248h-62.91456z m0 0M694.77262187 527.15975147l112.86755626 112.8675552 77.4781152 77.76938666v-190.63694186zM708.02545813 532.69390187h171.70432V704.39822187l-68.15744-68.3030752-103.54688-103.4012448z m0 0"  horiz-adv-x="1024" />

    
    <glyph glyph-name="jindudian-huise" unicode="&#59230;" d="M511.929059 868.31305273c-267.44693246 0-484.24211175-216.7951793-484.24211173-484.24211173s216.7951793-484.24211175 484.24211173-484.24211175 484.24211175 216.7951793 484.24211175 484.24211175c0.14188199 267.44693246-216.7951793 484.24211175-484.24211175 484.24211173zM511.929059-51.78952479999998c-240.77318005 0-435.8604658 195.08728575-435.86046422 435.8604658s195.08728575 435.8604658 435.86046422 435.86046422 435.8604658-195.08728575 435.8604658-435.86046422-195.08728575-435.8604658-435.8604658-435.8604658zM245.61717937 384.070941c0-95.20259466 50.79363517-183.02734435 133.22688161-230.69958192 82.43324485-47.53035711 183.87863319-47.53035711 266.31187804 0 82.43324485 47.53035711 133.22688003 135.49698725 133.22688161 230.69958192 0 147.13128263-119.18059541 266.31187965-266.31187963 266.31187963-147.27316464 0-266.45376163-119.18059541-266.45376163-266.31187963z m0 0"  horiz-adv-x="1024" />

    
    <glyph glyph-name="jindudian" unicode="&#59231;" d="M511.954846 692.265632c-170.230179 0-308.220478-137.990299-308.220478-308.220478s137.990299-308.220478 308.220478-308.220478 308.220478 137.990299 308.220478 308.220478c0.090308 170.230179-137.990299 308.220478-308.220478 308.220478zM511.954846 106.619631c-153.252315 0-277.425523 124.173208-277.425522 277.425523s124.173208 277.425523 277.425522 277.425522 277.425523-124.173208 277.425523-277.425522-124.173208-277.425523-277.425523-277.425523zM342.447129 384.045154c0-60.596525 32.330188-116.497046 84.799013-146.840462 52.468824-30.253109 117.038892-30.253109 169.507716 0 52.468824 30.253109 84.799012 86.243937 84.799013 146.840462 0 93.649175-75.858541 169.507717-169.507717 169.507717-93.739483 0-169.598025-75.858541-169.598025-169.507717z m0 0"  horiz-adv-x="1024" />

    
    <glyph glyph-name="xinjianxiangmu" unicode="&#59224;" d="M149.007849 384.045154c0 85.882706 33.323574 166.617868 93.739483 227.395008 60.41591 60.777141 140.880148 94.191022 226.491931 94.191022 85.611782 0 165.985713-33.504189 226.401622-94.191022 60.41591-60.777141 93.739483-141.512303 93.739484-227.395008s-33.323574-166.617868-93.739484-227.395008S554.760737 62.459123 469.239263 62.459123c-85.521475 0-165.985713 33.504189-226.491931 94.191023C182.331423 217.427286 149.007849 298.07214 149.007849 384.045154z m594.496164 0c0 73.691154-28.537261 142.866919-80.373931 194.974513-51.83667 52.017285-120.651204 80.735162-193.890819 80.735161s-142.144457-28.627569-193.89082-80.644854c-51.746362-52.017285-80.373931-121.283358-80.37393-194.974512s28.537261-142.866919 80.37393-194.974513c51.83667-52.017285 120.651204-80.735162 193.89082-80.644854 73.239615 0 142.054149 28.627569 193.800511 80.644854 51.83667 51.926978 80.464238 121.193051 80.464239 194.884205zM492.177441 223.206985V361.016668h137.809683c12.733398 0.541847 22.486639 11.288473 21.944792 23.931564-0.541847 11.920628-10.024164 21.493253-21.944792 21.944792H492.177441V544.793015c-0.541847 12.64309-11.288473 22.486639-23.931564 21.944793-11.920628-0.541847-21.493253-10.024164-21.944792-21.944793v-137.809683H308.401094c-12.64309-0.541847-22.486639-11.288473-21.944793-23.931564 0.541847-11.920628 10.024164-21.493253 21.944793-21.944792h137.809683V223.206985c-0.541847-12.64309 9.301702-23.389717 21.944792-23.931564 12.64309-0.541847 23.389717 9.301702 23.931564 21.944792 0.180616 0.632155 0.180616 1.354617 0.090308 1.986772z m0 0"  horiz-adv-x="1024" />

    
    <glyph glyph-name="xiangmu" unicode="&#59225;" d="M745.039245 755.119852H512.316077c-0.270923 0-0.632155 0.090308-0.903078 0.090308H360.508687c-0.451539 0-0.81277 0-1.264309-0.090308h-80.373931c-47.682512-0.090308-86.51486-38.922656-86.605168-86.605168v-569.209983C192.355587 51.622189 231.187935 12.78984 278.870447 12.78984H745.039245c47.682512 0.090308 86.51486 38.922656 86.605168 86.605168V668.604992C831.554105 716.287503 792.721757 755.119852 745.039245 755.119852z m-364.933768-39.103272h111.80104v-135.551989l-41.993121 42.625276c-3.612311 3.702619-8.759855 5.870006-13.997707 5.870006l-7.495546-0.090308v-1.535232c-2.348002-0.993386-4.605697-2.43831-6.411853-4.334774l-41.993121-42.625276V716.01658z m412.345356-616.621572c0-26.098951-21.312638-47.411588-47.411588-47.501896H278.960755c-26.098951 0-47.411588 21.312638-47.501896 47.411589V145.542288c14.088015-9.301702 30.343417-14.178323 47.411588-14.178323H745.039245c17.068172 0 33.323574 4.876621 47.411588 14.178323v-46.14728z m0 118.574125c0-26.098951-21.312638-47.411588-47.411588-47.501896H278.960755c-26.098951 0-47.411588 21.312638-47.501896 47.411588V668.604992c0 26.098951 21.312638 47.411588 47.501896 47.501896h62.04145v-183.415116c0-7.947085 4.786313-15.0814 12.101243-18.061558 2.348002-0.993386 4.876621-1.444925 7.405239-1.444924 5.237852 0 10.295088 2.167387 13.907399 5.870006l61.499603 62.583296 61.499603-62.492988c3.612311-3.702619 8.759855-5.870006 13.9074-5.870007 10.746627 0 19.506482 8.759855 19.596789 19.506483v183.324808h214.029456c26.098951 0 47.411588-21.312638 47.501896-47.411589v-450.726166z"  horiz-adv-x="1024" />

    
    <glyph glyph-name="tishi" unicode="&#59226;" d="M511.954846 708.882265c-179.351266 0-324.837111-145.395538-324.837111-324.837111 0-179.351266 145.395538-324.837111 324.837111-324.837111 179.351266 0 324.837111 145.395538 324.837111 324.837111 0 179.351266-145.485845 324.837111-324.837111 324.837111z m-28.717876-176.280801c1.986771 25.647412 29.350031 23.389717 29.350031 23.389717s24.924949 1.62554 28.176029-23.299409c0 0 5.870006-131.307523-11.469089-212.674839 0 0-2.709234-10.836934-16.70694-11.740013v-0.180615c-14.991093 0.361231-17.880942 11.740012-17.880942 11.740012-17.339095 81.457624-11.469089 212.765147-11.469089 212.765147z m28.717876-320.592645c-18.603404 0-33.594497 15.0814-33.594497 33.594497 0 18.603404 15.0814 33.594497 33.594497 33.594497 18.603404 0 33.594497-15.0814 33.594497-33.594497 0.090308-18.603404-14.991093-33.594497-33.594497-33.594497z m0 0"  horiz-adv-x="1024" />

    
    <glyph glyph-name="heyue" unicode="&#59227;" d="M467.342799 507.405591H288.172149c-12.733398 0-20.048329-7.224623-20.048329-20.048328s7.224623-20.138637 20.048329-20.138637h179.17065c12.823706 0 20.048329 7.224623 20.048329 20.138637 0.090308 12.733398-7.224623 20.048329-20.048329 20.048328zM467.342799 396.417321H288.172149c-12.733398 0-20.048329-7.224623-20.048329-20.048329s7.224623-20.138637 20.048329-20.138637h179.17065c12.823706 0 20.048329 7.224623 20.048329 20.138637 0.090308 12.733398-7.224623 20.048329-20.048329 20.048329zM631.973895 599.519534c0.090308 12.823706-7.314931 20.048329-20.048328 20.048329H287.449687c-12.733398 0-20.048329-7.314931-20.048329-20.048329 0-12.823706 7.314931-20.138637 20.138637-20.138636h324.475879c12.64309 0.090308 19.958021 7.405239 19.958021 20.138636zM786.761443 167.306464h-6.592469l-36.484346 109.091807c18.242173 15.352324 29.169415 37.206808 29.169416 59.783756 0 41.63189-36.484346 78.116236-78.116236 78.116236s-78.116236-36.484346-78.116236-78.116236c0-22.667255 10.927242-44.521739 28.898491-59.783756l-36.484346-109.091807h-16.436017c-41.63189 0-78.116236-36.484346-78.116236-78.116236 0-44.612047 33.594497-78.116236 78.116236-78.116236h193.800512c41.63189 0 78.116236 36.484346 78.116236 78.116236s-36.484346 78.116236-77.755005 78.116236zM694.828115 374.562836c15.532939 0 29.530646-9.301702 35.490961-23.66064 5.960314-14.358938 2.618926-30.885263-8.308317-41.812506a38.398871 38.398871 0 0 0-41.902813-8.308316c-14.358938 5.960314-23.66064 19.958021-23.66064 35.49096 0 21.132022 17.519711 38.290502 38.380809 38.290502z m-12.823705-115.323044c8.488932-1.444925 17.15848-1.444925 25.647411 0l30.704648-92.023635h-86.876092l30.524033 92.023635z m104.757033-207.978834H592.960931c-20.40956 0.993386-36.484346 17.880942-36.484346 38.290502 0 20.499868 16.074786 37.297116 36.484346 38.290501h193.800512c20.40956-0.993386 36.484346-17.880942 36.484346-38.290501 0.090308-20.499868-15.984478-37.297116-36.484346-38.290502zM473.574037 51.260958H281.669989c-44.160508 0-80.283623 28.085722-80.283623 62.492989V651.265896c0 34.226651 36.123115 62.492989 80.283623 62.492989h389.136255c44.250816 0 80.283623-28.085722 80.283623-62.492989v-166.07602c0-12.733398 7.585854-20.048329 20.951406-20.048329 13.365553 0 20.951407 7.224623 20.951407 20.048329V651.265896c-0.090308 57.255137-53.733133 102.138107-121.915513 102.138108H281.308757c-68.182379 0-121.915513-44.88297-121.915512-102.138108v-537.873181c0-57.255137 53.733133-102.228415 121.915512-102.228415H473.212805c13.365553 0 20.861099 7.314931 20.861099 20.138637 0 12.733398-7.224623 19.958021-20.499867 19.958021z"  horiz-adv-x="1024" />

    
    <glyph glyph-name="jianli" unicode="&#59228;" d="M257.10627 12.78984c-37.748655 0.090308-68.633918 30.975571-68.724226 68.724226V686.395626c0.090308 37.838963 30.885263 68.633918 68.724226 68.814534h509.426228c37.838963-0.090308 68.633918-30.975571 68.724227-68.724226v-604.971868c-0.090308-37.748655-30.975571-68.633918-68.724227-68.724226H257.10627z m-2.528618 700.336891c-14.810477-1.083693-24.202487-11.288473-24.202487-26.731105v-604.88156c0-16.255402 10.475703-26.731105 26.731105-26.731105h509.426228c16.255402 0 26.731105 10.475703 26.731105 26.731105V686.395626c0 16.255402-10.475703 26.731105-26.731105 26.731105H254.577652zM632.967281 315.23062c-12.372167 0-20.951407 8.669548-20.951407 20.951407 0 37.748655-9.39201 72.336538-26.550489 97.442102-18.151865 26.640797-43.528353 40.728812-73.420231 40.728812-29.350031 0-56.622983-15.442632-76.761619-43.347738-18.964635-26.008643-29.80157-60.596525-29.80157-94.732869 0-12.372167-8.57924-20.951407-20.951407-20.951406s-20.951407 8.669548-20.951406 20.951406c0 44.702355 14.26863 89.495017 39.193579 122.818591 27.634183 37.026193 66.376224 57.345445 109.182115 57.345445 43.528353 0 80.193315-19.054943 106.021342-55.08775 23.209101-32.420496 36.032807-76.851927 36.032808-125.166593-0.090308-12.281859-8.759855-20.951407-21.041715-20.951407zM304.87909 140.12382c-12.372167 0-20.951407 8.669548-20.951407 20.951407 0 12.372167 8.57924 20.951407 20.951407 20.951407h382.182556c12.372167 0 20.951407-8.57924 20.951406-20.951407s-8.669548-20.951407-20.951406-20.951407H304.87909z m0 95.455332c-12.372167 0-20.951407 8.669548-20.951407 20.951406 0 12.372167 8.57924 20.951407 20.951407 20.951407h382.182556c12.372167 0 20.951407-8.57924 20.951406-20.951407s-8.669548-20.951407-20.951406-20.951406H304.87909zM511.142076 474.352941c-22.396331 0-43.438046 8.759855-59.332216 24.563718-15.803863 15.803863-24.744334 37.748655-24.563718 60.054679-0.180616 22.396331 8.759855 44.250816 24.563718 60.054678s36.935885 24.563718 59.332216 24.563719h1.62554c22.396331 0 43.438046-8.759855 59.332216-24.563719 15.803863-15.803863 24.744334-37.748655 24.563719-60.054678 0.180616-22.396331-8.759855-44.250816-24.563719-60.054679s-36.935885-24.563718-59.332216-24.563718H511.142076z m0.722462 127.424288c-22.757562 0-42.625276-19.958021-42.625275-42.715583 0-10.746627 4.605697-21.583561 12.733398-29.711262 8.218009-8.218009 19.054943-12.914014 29.982185-12.914014 22.757562 0 42.625276 19.958021 42.625276 42.625276 0 22.757562-19.958021 42.715583-42.715584 42.715583z"  horiz-adv-x="1024" />

    
    <glyph glyph-name="shezhi3" unicode="&#59229;" d="M850.247817 455.568921c-3.522004 19.958021-14.539554 32.872035-27.995414 32.872035h-3.522003c-50.752976 0-91.933327 43.618661-91.933328 97.261487 0 17.610019 7.947085 37.026193 8.037393 37.206808 7.495546 17.700326 1.715848 39.283887-13.184937 50.301438l-0.81277 0.541846-86.695476 50.933593-0.903078 0.361231c-4.966928 2.167387-10.385396 3.341388-16.074786 3.341388-11.83032 0-23.570332-5.057236-31.156186-13.455861-10.656319-11.740012-44.612047-42.173737-72.155922-42.173736-27.814798 0-61.860834 31.065879-72.697769 43.076814-7.676162 8.57924-19.506482 13.636476-31.517418 13.636476-5.689391 0-10.927242-1.083693-15.803863-3.341388l-0.903078-0.361231-89.76594-52.197901-0.81277-0.632155c-14.900785-11.01755-20.680483-32.601111-13.275245-50.301437 0.090308-0.180616 8.037393-19.506482 8.037393-37.206808 0-53.552518-41.270659-97.261487-91.933327-97.261487h-3.612312c-13.365553 0-24.383103-12.914014-27.905106-32.872035-0.270923-1.62554-7.224623-41.090043-7.224623-71.794691s6.9537-70.169151 7.224623-71.794691c3.522004-19.958021 14.539554-32.872035 27.995414-32.872034h3.522004c50.752976 0 91.933327-43.618661 91.933327-97.261487 0-17.339095-7.676162-36.394038-8.037393-37.206809-7.405239-17.700326-1.715848-39.283887 13.184937-50.391745l0.81277-0.541847 85.069936-50.391745 0.903078-0.361231c4.966928-2.257695 10.295088-3.431696 15.984478-3.431696 12.010936 0 23.750948 5.237852 31.336802 13.997707 10.114472 11.649705 45.424817 44.88297 73.87177 44.88297 28.627569 0 63.305759-32.962342 74.323309-45.69574 7.585854-8.850163 19.416174-14.178323 31.607726-14.178323 5.599083 0 10.836934 1.083693 15.623247 3.341389l0.903078 0.361231 88.1404 51.565746 0.81277 0.632155c14.991093 11.107858 20.680483 32.691419 13.275245 50.301437-0.903078 2.077079-8.037393 20.228944-8.037393 37.206809 0 53.552518 41.270659 97.261487 91.933327 97.261486h3.522004c13.546168 0 24.47341 12.914014 27.995414 32.872035 0.090308 0.361231 7.224623 40.186965 7.224623 71.794691-0.090308 31.336802-6.9537 70.349766-7.314931 71.975306z m-46.056971-133.83614l-0.270924-1.354617-1.354616-0.090308c-32.059264-1.806156-61.951142-16.526325-84.166858-41.451274-22.306023-25.015257-34.67819-57.887292-34.67819-92.475174 0-24.021871 8.759855-47.230973 10.566011-51.565747l0.541846-1.354617-81.457624-48.043743h-0.632154c-1.444925 0-2.799541 0.541847-3.522004 0.993386l-0.270923 0.270923c-1.264309 1.535232-12.823706 14.720169-29.440339 27.995414-24.47341 19.506482-47.863127 29.350031-69.266073 29.350031-21.22233 0-44.341124-9.662933-68.814534-28.898492-15.984478-12.552782-27.272952-25.015257-29.259723-27.453567l-0.180615-0.180616-0.180616-0.090307c-0.722462-0.451539-2.077079-0.993386-3.522004-0.993386h-0.632154l-78.658083 46.960049 0.541847 1.354617c1.806156 4.425082 10.656319 27.634183 10.656319 51.656055 0 34.587883-12.281859 67.369609-34.678191 92.475174-22.215716 25.015257-52.197901 39.645119-84.166857 41.451274l-1.354617 0.090308-0.270924 1.354617c-0.993386 6.14093-6.231237 37.929271-6.231237 61.860834 0 23.841256 5.147544 55.810213 6.231237 61.860834l0.270924 1.354617 1.354617 0.090308c32.059264 1.806156 61.951142 16.526325 84.166857 41.451274 22.306023 25.015257 34.67819 57.887292 34.678191 92.475174 0 24.021871-8.759855 47.230973-10.566011 51.565747l-0.541847 1.354617 82.992856 48.675897h0.81277c1.806156 0 3.341388-0.722462 3.973543-1.174001l0.180616-0.090308 0.180615-0.180616c1.174001-1.444925 12.462475-13.817091 28.9888-26.369873 24.112179-18.422789 46.779434-27.634183 67.640533-27.634183 20.590176 0 43.076815 9.121087 67.098686 27.092336 16.345709 12.281859 27.543875 24.47341 28.808184 25.828027l0.180615 0.180616 0.180616 0.090307c0.632155 0.361231 2.167387 1.083693 3.883235 1.083694h0.81277l80.103007-47.592204-0.541847-1.354617c-1.715848-4.425082-10.566011-27.543875-10.566011-51.565746 0-34.587883 12.372167-67.279302 34.678191-92.384867 22.215716-25.015257 52.197901-39.645119 84.166857-41.451274l1.354617-0.090308 0.270924-1.354617c0.993386-6.14093 6.231237-37.838963 6.231237-61.860834-0.180616-23.931564-5.328159-55.719905-6.321545-61.860834zM511.864538 509.572978c-65.382838 0-118.574125-56.352059-118.574124-125.70844 0-69.266073 53.191287-125.70844 118.574124-125.70844s118.574125 56.352059 118.574125 125.70844c0.090308 69.356381-53.100979 125.70844-118.574125 125.70844z m0-200.483288c-39.012964 0-70.801305 33.594497-70.801305 74.955464 0 41.270659 31.698033 74.955463 70.801305 74.955463 39.103272 0 70.891613-33.594497 70.801306-74.955463 0.090308-41.360967-31.698033-74.955463-70.801306-74.955464z"  horiz-adv-x="1024" />

    
    <glyph glyph-name="tixingtishi" unicode="&#59209;" d="M513.46384 835.7743370000001c-248.291946 0-449.584462-201.299679-449.584462-449.624371 0-248.296039 201.292516-449.594695 449.584462-449.594695 248.28069 0 449.63665 201.299679 449.63665 449.594695C963.099467 634.474658 761.744529 835.7743370000001 513.46384 835.7743370000001zM473.683834 591.8242789999999c2.690272 35.478026 40.597627 32.423457 40.597627 32.423457s34.488489 2.288113 39.011502-32.225959c0 0 8.162914-181.774997-15.904225-294.366308 0 0-3.746324-14.944364-23.107277-16.22145l0-0.275269c-20.751626 0.539282-24.692379 16.296151-24.692379 16.296151C465.521944 410.052353 473.683834 591.8242789999999 473.683834 591.8242789999999zM513.489422 148.015358c-25.719778 0-46.560432 20.840654-46.560432 46.560432 0 25.710568 20.840654 46.556339 46.560432 46.556339s46.561455-20.845771 46.561455-46.556339C560.050878 168.85601199999996 539.2092 148.015358 513.489422 148.015358z"  horiz-adv-x="1024" />

    
    <glyph glyph-name="iconfontoptionbutton" unicode="&#59210;" d="M512 810.666667c-235.642667 0-426.666667-191.026667-426.666667-426.666667s191.024-426.666667 426.666667-426.666667c235.64 0 426.666667 191.026667 426.666667 426.666667S747.64 810.666667 512 810.666667zM512 0c-212.08 0-384 171.925333-384 384 0 212.077333 171.92 384 384 384 212.074667 0 384-171.922667 384-384C896 171.92533300000002 724.074667 0 512 0zM512 384m-234.666667 0a88 88 0 1 1 469.333333 0 88 88 0 1 1-469.333333 0Z"  horiz-adv-x="1024" />

    
    <glyph glyph-name="youxiang2" unicode="&#59215;" d="M872.558 735.939H152.42c-66.384 0-120.022-53.627-120.022-119.879v-464.275c0-66.25 53.638-119.882 120.022-119.882h720.137c66.136 0 120.022 53.632 120.022 119.882V616.06c0 66.252-53.886 119.879-120.022 119.879z m56.008-584.154c0-30.808-25.13-55.875-56.007-55.875H152.422c-30.882 0-56.008 25.066-56.008 55.875V616.06c0 30.75 25.127 55.878 56.008 55.878h720.137c30.878 0 56.007-25.127 56.007-55.878v-464.275zM833.235 519.802L512.49 313.044 191.618 519.802c-14.881 9.501-34.633 5.256-44.258-9.562-9.505-14.874-5.257-34.686 9.625-44.25l338.19-217.887c5.249-3.434 11.315-5.062 17.315-5.062 6.003 0 12.063 1.628 17.316 5.062L867.865 465.99c14.881 9.564 19.196 29.376 9.571 44.25-9.572 14.877-29.51 19.063-44.2 9.562z"  horiz-adv-x="1025" />

    
    <glyph glyph-name="zhankai1" unicode="&#59216;" d="M509.002 231.875a22.334 22.334 0 0 0-15.86 6.562L239.688 491.89a22.421 22.421 0 0 0 31.72 31.676l253.454-253.41a22.421 22.421 0 0 0-15.86-38.282M509.002 231.875a22.334 22.334 0 0 0-15.86 38.238l259.45 259.407a22.421 22.421 0 0 0 31.677-31.676L524.905 238.437a22.508 22.508 0 0 0-15.903-6.562"  horiz-adv-x="1024" />

    
    <glyph glyph-name="kejian" unicode="&#59217;" d="M951.4 313.6c-35.4 55.7-79 102.2-132.4 141.1l115.8 119.8-44.7 45-122.6-130.7c-69.4 39.2-149.6 62.2-228.4 66L538 722.7h-58.7l0.6-168.3c-81.7-3.1-157.8-25-225.6-65.3L126.5 614.7l-40-40.3 117.7-117.9c-53.4-38.6-99.1-87.3-134.3-143.1l-7.7-12 7.7-12C165.6 138.60000000000002 332 47.299999999999955 510.8 47.299999999999955s345.1 91.5 440.9 242.1l7.7 12-8 12.2zM510.7 102.39999999999998c-150.4-0.4-291.3 74.2-375.3 199.1 84.4 124.4 224.9 198.8 375.3 198.8s291-74.6 375.3-199.1C801.9 176.60000000000002 661.1 102 510.7 102.39999999999998z m0 0M510.8 442c-80.4 0-145.6-65.2-145.6-145.6 0-80.4 65.2-145.6 145.6-145.6 80.4 0 145.6 65.1 145.6 145.6S591.2 442 510.8 442z m0-233.8c-35.7 0-67.9 21.5-81.6 54.5-13.6 33-6.2 71 19.1 96.2 25.3 25.3 63.1 32.8 96.2 19.1 33-13.7 54.5-45.9 54.5-81.6-0.1-48.7-39.4-88.2-88.2-88.2z m0 0"  horiz-adv-x="1024" />

    
    <glyph glyph-name="sousuo1" unicode="&#59218;" d="M944.951334 20.990106999999966L777.542121 188.29699200000005c48.605976 64.978515 77.564905 145.306286 77.564904 232.797042 0 215.401219-174.776856 389.973419-390.280404 389.973419C249.425402 810.9651240000001 74.750874 636.392925 74.750874 420.991706S249.425402 31.018286999999987 464.92895 31.018286999999987c97.825922 0 186.953932 36.224243 255.411612 95.574698l165.055661-165.055661c8.18627-8.18627 18.930748-12.381733 29.777555-12.381733 10.846807 0 21.488958 4.195463 29.777556 12.381733 16.372539 16.474868 16.372539 43.080244 0 59.452783z m-480.022384 94.039772c-168.841811 0-306.268812 137.222344-306.268812 306.064155s137.427001 305.961827 306.268812 305.961827S771.197762 589.731188 771.197762 420.991706s-137.427001-305.961827-306.268812-305.961827z"  horiz-adv-x="1024" />

    
    <glyph glyph-name="tougao" unicode="&#59219;" d="M959.34464 658.944a23.90016 23.90016 0 0 1-5.632 9.58464 16.03584 16.03584 0 0 1-5.632 5.05856 60.88704 60.88704 0 0 1-43.37664 18.0224h-656.384a31.47776 31.47776 0 0 1-31.5392-31.5392 30.72 30.72 0 0 1 14.6432-26.48064l134.08256-124.5184H194.80576a31.55968 31.55968 0 1 1 0-63.09888h170.7008a31.15008 31.15008 0 0 1 31.55968 31.55968v2.2528l161.13664-149.87264a30.24896 30.24896 0 0 1 21.38112-8.45824 33.1776 33.1776 0 0 1 20.29568 7.33184l298.5984 251.904-43.37664-441.1392h-509.952a31.55968 31.55968 0 1 1 0-63.09888h509.952c34.36544 0 61.97248 28.16 61.97248 58.01984L966.656 629.08416a66.78528 66.78528 0 0 1-7.33184 29.85984zM580.73088 395.83744L329.46176 629.08416l532.48 3.3792z m0 0M472.00256 349.06111999999996a31.51872 31.51872 0 0 1-31.55968 31.55968H88.8832a31.55968 31.55968 0 1 1 0-63.09888h351.55968c17.46944 0 32.11264 14.09024 31.55968 31.5392zM555.95008 226.79552a31.51872 31.51872 0 0 1-31.55968 31.55968h-276.0704a31.55968 31.55968 0 0 1 0-63.09888h276.0704a31.49824 31.49824 0 0 1 31.55968 31.5392z"  horiz-adv-x="1024" />

    
    <glyph glyph-name="guanbi4" unicode="&#59220;" d="M566.212 402.07l385.506 385.506c18.07 18.071 18.07 54.212 0 72.283-18.07 18.07-54.212 18.07-72.283 0L493.93 474.353 108.424 859.859c-18.071 18.07-48.189 18.07-72.283 0-18.07-24.094-18.07-54.212 0-72.283l385.506-385.505L36.141 16.565000000000055c-18.07-18.07-18.07-54.212 0-72.283 18.07-18.07 54.212-18.07 72.283 0l385.505 385.506 385.506-385.506c18.07-18.07 54.212-18.07 72.283 0 18.07 18.07 18.07 54.212 0 72.283L566.212 402.07z"  horiz-adv-x="1024" />

    
    <glyph glyph-name="tupian" unicode="&#59221;" d="M335.36 455.68c38.4 0 71.68 30.72 71.68 71.68 0 38.4-30.72 71.68-71.68 71.68-38.4 0-71.68-30.72-71.68-71.68 2.56-40.96 33.28-71.68 71.68-71.68z m0 0M652.8 499.2L445.44 204.79999999999995 337.92 355.84000000000003 158.72 102.39999999999998h704L652.8 499.2z m0 0M934.4 788.48H89.6c-20.48 0-35.84-15.36-35.84-35.84V12.799999999999955c0-20.48 15.36-35.84 35.84-35.84h844.8c20.48 0 35.84 15.36 35.84 35.84V752.64c0 20.48-15.36 35.84-35.84 35.84z m-35.84-739.84H125.44V719.36h775.68v-670.72h-2.56z m0 0"  horiz-adv-x="1024" />

    
    <glyph glyph-name="mima2" unicode="&#59222;" d="M787.79 517.242V556.62c0 152.345-123.918 276.262-276.26 276.262-152.345 0-276.261-123.918-276.261-276.262v-39.378c-64.52-3.824-115.882-57.54-115.882-122.999v-335.791c0-67.932 55.306-123.235 123.238-123.235h537.808c67.932 0 123.24 55.303 123.24 123.235V394.243c-0.001 65.46-51.364 119.175-115.883 122.999zM511.53 772.399c119.014 0 215.824-96.809 215.824-215.779v-39.141H295.707V556.62c0 118.97 96.807 215.779 215.824 215.779z m331.656-713.947c0-34.6-28.152-62.755-62.754-62.755H242.625c-34.603 0-62.755 28.156-62.755 62.755V394.243c0 34.601 28.152 62.754 62.755 62.754h537.808c34.602 0 62.754-28.153 62.754-62.754v-335.791zM511.53 385.57c-64.706 0-117.336-52.673-117.336-117.38 0-54.25 37.002-100.02 87.092-113.403v-82.168c0-16.71 13.534-30.24 30.244-30.24s30.24 13.53 30.24 30.24v82.16c50.125 13.376 87.137 59.155 87.137 113.411 0.001 64.707-52.629 117.38-117.376 117.38z m0-174.275c-31.377 0-56.942 25.519-56.942 56.895 0 31.378 25.565 56.896 56.943 56.896 31.42 0 56.94-25.518 56.94-56.896-0.001-31.376-25.52-56.895-56.94-56.895z"  horiz-adv-x="1024" />

    
    <glyph glyph-name="bukejian" unicode="&#59223;" d="M903 374.70000000000005l-67.5 67.5c29.7 32.4 53.9 70.1 72.8 113.3 5.4 13.5 0 29.7-13.5 35-13.5 5.4-29.7 0-35-13.5-62-137.5-196.9-226.6-348-226.6s-285.9 89-345.3 226.6c-5.3 10.8-16.1 16.1-24.2 16.1-2.7 0-8.1 0-10.8-2.7-13.5-5.4-18.9-21.6-13.5-35 16.2-43.1 40.5-80.9 70.1-113.3l-67.5-67.5c-10.8-10.8-10.8-27 0-37.8 10.8-10.8 27-10.8 37.8 0l67.5 67.5c27-24.2 59.4-45.8 91.7-62l-43.1-75.5c-8.1-13.5-2.7-29.7 10.8-37.8 13.5-8.1 29.7-2.7 37.8 10.8l45.8 80.9c37.8-13.5 75.5-21.6 116-24.2v-94.4c0-16.2 10.8-27 27-27s27 10.8 27 27v94.3c40.5 2.7 78.3 10.8 116 24.2l45.8-80.9c8.1-13.5 24.2-16.2 37.8-10.8 13.5 8.1 16.2 24.2 10.8 37.8l-43.1 75.5c32.4 16.2 64.7 37.8 91.7 62l67.5-67.5c10.8-10.8 27-10.8 37.8 0 10.5 11 10.5 27.2-0.2 38z m0 0"  horiz-adv-x="1024" />

    
    <glyph glyph-name="an" unicode="&#59211;" d="M499.165867 186.70933300000002c105.540267 0 191.146667 85.6064 191.146666 191.146667s-85.6064 191.146667-191.146666 191.146667-191.146667-85.6064-191.146667-191.146667 85.6064-191.146667 191.146667-191.146667zM499.165867 695.296c12.424533 0 22.528-10.103467 22.528-22.528s-10.103467-22.528-22.528-22.528-22.528 10.103467-22.528 22.528c0 12.288 10.103467 22.528 22.528 22.528zM499.165867 105.60853299999997c12.424533 0 22.528-10.103467 22.528-22.528s-10.103467-22.528-22.528-22.528-22.528 10.103467-22.528 22.528 10.103467 22.528 22.528 22.528zM729.088 149.29920000000004c-8.874667-8.874667-23.074133-8.874667-31.9488 0s-8.874667 23.074133 0 31.9488 23.074133 8.874667 31.9488 0c8.874667-8.738133 8.874667-23.074133 0-31.9488zM303.104 573.2352000000001c-8.874667-8.874667-23.074133-8.874667-31.9488 0s-8.874667 23.074133 0 31.9488 23.074133 8.874667 31.9488 0c8.738133-8.738133 8.738133-23.074133 0-31.9488zM724.1728 605.184c8.874667-8.874667 8.874667-23.074133 0-31.9488s-23.074133-8.874667-31.9488 0-8.874667 23.074133 0 31.9488 23.074133 8.874667 31.9488 0zM301.192533 181.24800000000005c8.874667-8.874667 8.874667-23.074133 0-31.9488s-23.074133-8.874667-31.9488 0-8.874667 23.074133 0 31.9488 23.210667 8.874667 31.9488 0zM815.240533 379.22133299999996c0-12.424533-10.103467-22.528-22.528-22.528s-22.528 10.103467-22.528 22.528 10.103467 22.528 22.528 22.528c12.424533 0.136533 22.528-9.966933 22.528-22.528zM228.420267 379.22133299999996c0-12.424533-10.103467-22.528-22.528-22.528s-22.528 10.103467-22.528 22.528 10.103467 22.528 22.528 22.528c12.424533 0.136533 22.528-9.966933 22.528-22.528z"  horiz-adv-x="1024" />

    
    <glyph glyph-name="liangdu" unicode="&#59212;" d="M320.853333 378.26559999999995c1.501867 53.930667 20.0704 98.850133 55.978667 134.7584 35.908267 35.908267 81.1008 54.613333 135.441067 55.978667 53.930667-1.501867 98.850133-20.0704 134.7584-55.978667 35.908267-35.908267 54.613333-80.827733 55.978666-134.7584-1.501867-54.4768-20.0704-99.669333-55.978666-135.441067-35.908267-35.908267-80.827733-54.613333-134.7584-55.978666-54.4768 1.501867-99.669333 20.0704-135.441067 55.978666-35.908267 35.771733-54.4768 80.964267-55.978667 135.441067zM544.494933 409.122133c0 6.9632-2.321067 12.834133-7.099733 17.476267-4.778667 4.778667-10.6496 7.099733-17.885867 7.099733s-13.243733-2.321067-18.295466-7.099733c-4.9152-4.778667-7.509333-10.513067-7.509334-17.476267v-61.8496c0-7.509333 2.4576-13.5168 7.509334-18.295466 4.9152-4.778667 11.0592-7.099733 18.295466-7.099734 7.236267 0 13.1072 2.321067 17.885867 7.099734s7.099733 10.786133 7.099733 18.295466v61.8496zM544.494933 721.92c0 6.9632-2.321067 12.834133-7.099733 17.476267-4.778667 4.778667-10.6496 7.099733-17.885867 7.099733s-13.243733-2.321067-18.295466-7.099733c-4.9152-4.778667-7.509333-10.513067-7.509334-17.476267v-61.8496c0-7.509333 2.4576-13.5168 7.509334-18.295467 4.9152-4.778667 11.0592-7.099733 18.295466-7.099733 7.236267 0 13.1072 2.321067 17.885867 7.099733s7.099733 10.786133 7.099733 18.295467v61.8496z m-252.7232-78.370133c-4.9152 4.9152-10.786133 7.509333-17.476266 7.509333s-12.6976-2.4576-17.885867-7.509333c-5.188267-4.9152-7.7824-10.786133-7.7824-17.476267s2.4576-12.834133 7.509333-18.295467l43.963734-43.281066c5.461333-4.9152 11.605333-7.509333 18.295466-7.509334s12.561067 2.4576 17.476267 7.509334 7.509333 10.786133 7.509333 17.476266-2.4576 12.834133-7.509333 18.295467l-44.100267 43.281067z m-123.016533-233.335467c-7.509333 0-13.5168-2.321067-18.295467-7.099733s-7.099733-10.6496-7.099733-17.885867 2.321067-13.243733 7.099733-18.295467c4.778667-4.9152 10.786133-7.509333 18.295467-7.509333h61.8496c6.9632 0.546133 12.970667 3.140267 17.885867 7.7824 4.9152 4.778667 7.509333 10.6496 7.509333 17.885867s-2.4576 13.1072-7.509333 17.885866c-4.9152 4.778667-10.922667 7.099733-17.885867 7.099734h-61.8496z m77.4144-252.7232c-4.9152-4.9152-7.509333-10.786133-7.509333-17.476267s2.4576-12.6976 7.509333-17.885866c4.9152-5.188267 10.922667-7.7824 17.885867-7.7824s12.970667 2.4576 17.885866 7.509333l43.963734 43.963733c4.9152 5.461333 7.509333 11.605333 7.509333 18.295467s-2.594133 12.561067-7.7824 17.476267c-5.188267 4.9152-11.195733 7.509333-17.885867 7.509333s-12.561067-2.4576-17.476266-7.509333l-44.100267-44.100267z m233.335467-122.88c0.546133-7.509333 3.140267-13.5168 7.7824-18.295467 4.778667-4.778667 10.6496-7.099733 17.885866-7.099733s13.1072 2.321067 17.885867 7.099733 7.099733 10.786133 7.099733 18.295467v61.8496c0 6.9632-2.321067 12.970667-7.099733 17.885867-4.778667 4.9152-10.6496 7.509333-17.885867 7.509333s-13.1072-2.4576-17.885866-7.509333c-4.778667-4.9152-7.3728-10.922667-7.7824-17.885867v-61.8496z m252.7232 77.4144c5.461333-4.9152 11.605333-7.509333 18.295466-7.509333s12.561067 2.594133 17.476267 7.7824c4.9152 5.188267 7.509333 11.195733 7.509333 17.885866s-2.4576 12.561067-7.509333 17.476267l-43.963733 43.963733c-4.9152 4.9152-10.786133 7.509333-17.476267 7.509334s-12.6976-2.594133-17.885867-7.7824c-5.188267-5.188267-7.7824-11.195733-7.7824-17.885867s2.4576-12.561067 7.509334-17.476267l43.8272-43.963733zM856.064 345.36106700000005c6.9632 0.546133 12.834133 3.140267 17.476267 7.7824 4.778667 4.778667 7.099733 10.6496 7.099733 17.885866s-2.321067 13.1072-7.099733 17.885867-10.513067 7.099733-17.476267 7.099733h-61.8496c-7.509333 0-13.5168-2.321067-18.295467-7.099733s-7.099733-10.6496-7.099733-17.885867 2.321067-13.1072 7.099733-17.885866 10.786133-7.3728 18.295467-7.7824H856.064z m-78.2336 252.7232c4.9152 5.461333 7.509333 11.605333 7.509333 18.295466s-2.4576 12.561067-7.509333 17.476267c-4.9152 4.9152-10.786133 7.509333-17.476267 7.509333s-12.834133-2.4576-18.295466-7.509333l-43.281067-43.963733c-4.9152-4.9152-7.509333-10.786133-7.509333-17.476267s2.4576-12.6976 7.509333-17.885867 10.786133-7.7824 17.476267-7.7824 12.834133 2.4576 18.295466 7.509334l43.281067 43.8272z m0 0"  horiz-adv-x="1024" />

    
    <glyph glyph-name="yinliang" unicode="&#59213;" d="M545.723733 681.7792L381.3376 534.1866669999999c-4.232533-3.822933-9.8304-5.870933-15.428267-5.870934H218.453333c-12.834133 0-23.210667-10.376533-23.210666-23.210666v-251.4944c0-12.834133 10.376533-23.210667 23.210666-23.210667h145.134934c5.7344 0 11.332267-2.184533 15.5648-6.007467l166.843733-150.186666c3.413333-3.003733 8.328533-3.822933 12.424533-1.911467 4.232533 1.911467 6.826667 6.007467 6.826667 10.6496V673.1776c0 4.5056-2.730667 8.738133-6.826667 10.513067-4.369067 1.911467-9.284267 1.2288-12.6976-1.911467zM613.5808 226.986667c-9.693867 0-18.158933 6.5536-20.343467 15.9744-2.321067 9.4208 2.184533 19.114667 10.786134 23.620266 41.642667 21.7088 67.720533 64.7168 67.720533 111.547734 0 46.830933-26.077867 89.838933-67.720533 111.547733-9.966933 5.461333-13.653333 17.885867-8.465067 27.989333s17.476267 14.062933 27.716267 9.147734c55.432533-28.808533 90.248533-86.152533 90.248533-148.548267 0-62.532267-34.816-119.876267-90.248533-148.6848-3.003733-1.774933-6.280533-2.594133-9.693867-2.594133z m0 0M666.8288 125.13279999999997c-9.693867 0-18.0224 6.5536-20.343467 15.9744-2.321067 9.284267 2.048 19.114667 10.6496 23.483733 80.008533 41.642667 129.8432 124.5184 129.4336 214.766934-0.546133 90.112-51.336533 172.4416-131.754666 213.265066-10.24 5.3248-14.199467 17.749333-9.0112 27.989334 5.188267 10.24 17.6128 14.336 27.989333 9.284266 94.344533-47.9232 154.146133-144.452267 154.692267-250.2656 0.546133-105.813333-58.026667-203.1616-151.825067-252.040533-3.140267-1.6384-6.417067-2.4576-9.8304-2.4576z m0 0"  horiz-adv-x="1024" />

    
    <glyph glyph-name="jingyin" unicode="&#59214;" d="M545.723733 681.7792L381.3376 534.1866669999999c-4.232533-3.822933-9.8304-5.870933-15.428267-5.870934H218.453333c-12.834133 0-23.210667-10.376533-23.210666-23.210666v-251.4944c0-12.834133 10.376533-23.210667 23.210666-23.210667h145.134934c5.7344 0 11.332267-2.184533 15.5648-6.007467l166.843733-150.186666c3.413333-3.003733 8.328533-3.822933 12.424533-1.911467 4.232533 1.911467 6.826667 6.007467 6.826667 10.6496V673.1776c0 4.5056-2.730667 8.738133-6.826667 10.513067-4.369067 1.911467-9.284267 1.2288-12.6976-1.911467zM786.705067 281.736533c-4.5056 0-8.738133 1.774933-12.014934 4.9152l-67.1744 67.1744-67.1744-67.1744c-3.140267-3.140267-7.3728-4.9152-11.8784-4.9152-4.5056 0-8.738133 1.774933-12.014933 4.9152-3.140267 3.140267-4.9152 7.3728-4.9152 11.8784 0 4.5056 1.774933 8.874667 4.9152 12.014934l67.1744 67.1744-67.1744 67.1744c-6.5536 6.5536-6.5536 17.339733 0 24.029866 3.140267 3.140267 7.3728 4.9152 11.8784 4.9152 4.5056 0 8.738133-1.774933 12.014933-4.9152l67.1744-67.1744 67.1744 67.1744c3.140267 3.140267 7.509333 4.9152 12.014934 4.9152 4.5056 0 8.738133-1.774933 12.014933-4.9152 3.2768-3.140267 5.051733-7.509333 5.051733-12.014933 0-4.5056-1.774933-8.738133-4.9152-12.014933l-67.1744-67.1744 67.1744-67.1744c3.140267-3.140267 4.9152-7.3728 4.9152-11.8784 0-4.5056-1.774933-8.874667-4.9152-12.014934-3.2768-3.140267-7.645867-4.9152-12.151466-4.9152z"  horiz-adv-x="1024" />

    
    <glyph glyph-name="guanbi3" unicode="&#59208;" d="M774.144 711.68L512 449.536 249.856 711.68l-65.536-65.536 262.144-262.144-262.144-262.144 65.536-65.536 262.144 262.144 262.144-262.144 65.536 65.536-262.144 262.144 262.144 262.144z"  horiz-adv-x="1024" />

    
    <glyph glyph-name="shenglve" unicode="&#59207;" d="M406.72586864 593.7740188099999h187.20537045v187.20537221h-187.20537045v-187.20537221zM406.72586864 281.76737821999996h187.20537045v187.20537043h-187.20537045v-187.20537043zM406.72586864-30.241575409999996h187.20537045v187.20537217h-187.20537045v-187.20537217z"  horiz-adv-x="1024" />

    
    <glyph glyph-name="touping" unicode="&#59199;" d="M866.986667 688.3328v-547.6352H669.149867v-60.893867H354.850133v60.893867H157.013333V688.3328h709.973334z m-76.049067-76.1856H233.0624v-395.537067h557.8752V612.1472z m-294.0928-109.499733v-36.4544H441.002667v-139.946667h-40.004267V466.193067h-56.251733v36.4544h152.098133z m58.299733 0l40.5504-119.739734 40.004267 119.739734h43.554133l-62.941866-176.5376h-41.642667L512 502.647467h43.144533z m0 0"  horiz-adv-x="1024" />

    
    <glyph glyph-name="xiazai" unicode="&#59200;" d="M790.9376 353.826133v-202.752H233.0624V353.826133H157.013333v-278.801066h709.973334V353.826133zM695.0912 476.842667l-57.617067 49.698133-87.381333-101.307733V692.974933h-76.1856v-267.741866l-87.381333 101.307733-57.617067-49.698133L512 272.1792z"  horiz-adv-x="1024" />

    
    <glyph glyph-name="jieping" unicode="&#59201;" d="M521.8304 454.8608v78.2336c-0.136533 50.3808-20.0704 98.577067-55.432533 134.3488l-1.911467 1.501867c-35.089067 34.816-82.602667 54.340267-132.027733 54.4768-51.882667 0-99.396267-21.435733-133.666134-55.842134-35.6352-35.6352-55.569067-83.968-55.432533-134.3488v-108.407466c0-16.384 13.243733-29.627733 29.627733-29.627734s29.627733 13.243733 29.627734 29.627734v108.407466c0 35.6352 14.882133 68.4032 38.0928 91.7504v0.4096c24.302933 24.302933 57.344 37.956267 91.613866 38.0928 35.089067 0 67.037867-14.199467 90.385067-37.000533l1.2288-1.501867c23.7568-23.3472 38.0928-56.1152 38.0928-91.7504V454.997333l59.8016-0.136533zM346.5216 455.68v-410.965333H880.64v410.965333H346.5216z m472.541867-349.252267h-410.965334V394.103467h410.965334v-287.675734zM613.5808 348.910933c-19.114667 0-37.410133-7.509333-50.7904-21.026133-12.970667-12.970667-21.026133-30.993067-21.026133-50.926933 0-20.206933 8.055467-38.0928 21.026133-51.063467 9.147733-9.147733 20.343467-15.701333 32.768-18.8416v-41.096533h35.908267v41.096533c12.561067 3.140267 23.893333 9.693867 32.904533 18.8416 13.380267 12.970667 21.162667 30.856533 21.162667 51.063467 0 19.933867-7.7824 38.0928-21.162667 50.926933-13.380267 13.5168-31.675733 21.162667-50.7904 21.026133z m25.531733-97.757866c-6.5536-6.5536-15.291733-10.376533-24.576-10.6496h-1.6384c-14.609067 0.273067-27.579733 9.147733-33.041066 22.664533-5.461333 13.5168-2.321067 29.0816 8.055466 39.3216 6.826667 6.826667 16.110933 10.6496 25.668267 10.6496 9.8304 0 19.2512-4.232533 25.531733-10.6496 6.690133-6.826667 10.513067-16.110933 10.513067-25.668267 0.136533-9.693867-3.6864-18.8416-10.513067-25.668266z"  horiz-adv-x="1024" />

    
    <glyph glyph-name="zanting" unicode="&#59202;" d="M225.416533 708.266667h177.493334v-648.533334h-177.493334v648.533334z m395.946667 0h177.493333v-648.533334h-177.493333v648.533334z m0 0"  horiz-adv-x="1024" />

    
    <glyph glyph-name="bofang1" unicode="&#59203;" d="M225.28 748.407467L798.72 384 225.28 19.592533V748.407467z m0 0"  horiz-adv-x="1024" />

    
    <glyph glyph-name="suoping" unicode="&#59204;" d="M723.7632 463.325867v87.381333c-0.136533 56.388267-22.391467 110.318933-62.122667 150.3232l-2.184533 1.6384C620.270933 741.717333 567.159467 763.562667 511.863467 763.6992c-58.026667 0-111.138133-24.029867-149.504-62.532267-39.867733-39.867733-62.2592-93.934933-62.122667-150.3232v-87.381333h-0.273067l423.799467-0.136533z m-357.307733 87.517866c0 39.867733 16.657067 76.5952 42.734933 102.8096v0.4096c27.306667 27.170133 64.170667 42.461867 102.536533 42.5984 39.3216 0 75.093333-15.9744 101.1712-41.3696l1.365334-1.6384c26.624-26.2144 42.5984-62.805333 42.5984-102.8096v-87.381333H366.455467v87.381333zM213.265067 463.872v-459.5712h597.469866V463.872H213.265067z m528.520533-390.621867H282.2144V394.922667h459.5712v-321.672534zM512 344.132267c-21.2992 0-41.7792-8.465067-56.797867-23.620267-14.472533-14.472533-23.483733-34.679467-23.483733-57.070933 0-22.664533 9.0112-42.5984 23.483733-57.070934 10.24-10.24 22.664533-17.6128 36.727467-21.162666v-46.011734h40.277333v46.011734c13.9264 3.549867 26.760533 10.922667 36.727467 21.162666 14.882133 14.472533 23.620267 34.4064 23.620267 57.070934 0 22.391467-8.738133 42.5984-23.620267 57.070933-15.018667 15.291733-35.6352 23.893333-56.9344 23.620267z m28.672-109.226667c-7.236267-7.3728-17.066667-11.605333-27.4432-11.8784h-1.911467c-16.384 0.273067-30.856533 10.24-37.000533 25.3952-6.144 15.1552-2.594133 32.494933 9.0112 43.963733 7.645867 7.509333 18.0224 11.8784 28.672 11.8784 11.0592 0 21.435733-4.778667 28.672-11.8784 7.509333-7.645867 11.741867-18.0224 11.8784-28.672-0.136533-10.922667-4.369067-21.162667-11.8784-28.808533z"  horiz-adv-x="1024" />

    
    <glyph glyph-name="fangda" unicode="&#59205;" d="M611.5328 28.4672v67.9936h187.050667v187.050667h67.857066l0.4096-255.044267h-255.317333z m-455.202133 0V283.921067h68.266666v-139.264L418.6112 338.944l48.196267-48.196267-194.423467-194.286933h139.400533v-67.9936H156.330667z m400.861866 448.648533l194.423467 194.423467H613.444267v67.857067h254.225066v-255.453867h-67.857066V623.479467L605.3888 429.056l-48.196267 48.059733z m-400.861866 6.9632V739.5328h255.453866v-67.857067h-187.050666l-0.273067-187.460266h-68.130133z"  horiz-adv-x="1024" />

    
    <glyph glyph-name="xiayiji" unicode="&#59206;" d="M673.928533 384L227.328 100.9664V667.0336L673.928533 384z m34.269867 283.0336h88.4736v-565.930667h-88.4736V667.0336z m0 0"  horiz-adv-x="1024" />

    
    <glyph glyph-name="iconfontxingxing" unicode="&#59198;" d="M942.689255 484.770163c-4.743556 14.595558-17.39304 25.298967-32.596745 27.4883l-250.070555 36.367265-111.899275 226.596033c-6.81126 13.74415-20.79867 22.501485-36.124005 22.501485-15.325336 0-29.312745-8.757335-36.124005-22.501485l-111.899275-226.596033-250.070555-36.367265c-15.203706-2.189334-27.853189-12.771113-32.596745-27.4883-4.743556-14.595558-0.729778-30.650671 10.21689-41.35408l180.984915-176.362988L229.939522 17.95557699999995c-2.554223-15.082076 3.648889-30.407412 16.055113-39.408006 12.406224-9.000594 28.826226-10.21689 42.448747-3.040741l223.676921 117.615869 223.676921-117.615869c5.838223-3.040741 12.284594-4.621927 18.730966-4.621927 8.392446 0 16.663262 2.554223 23.717781 7.662668 12.406224 9.000594 18.609336 24.325929 16.055113 39.408006l-42.692006 249.097518 180.984915 176.362988C943.419033 454.119492 947.432811 470.174605 942.689255 484.770163L942.689255 484.770163z"  horiz-adv-x="1024" />

    
    <glyph glyph-name="sousuo" unicode="&#59197;" d="M893.610667 47.7184l-113.8688 124.1088c54.749867 64.3072 87.790933 147.729067 87.790933 238.7968 0 203.5712-165.0688 368.64-368.64 368.64s-368.64-165.0688-368.64-368.64 165.0688-368.64 368.64-368.64c80.964267 0 155.921067 26.077867 216.6784 70.4512l113.595733-123.835733 64.443734 59.118933z m-675.84 362.9056c0 155.101867 126.1568 281.258667 281.258666 281.258667s281.258667-126.1568 281.258667-281.258667-126.1568-281.258667-281.258667-281.258667-281.258667 126.293333-281.258666 281.258667z"  horiz-adv-x="1024" />

    
    <glyph glyph-name="dengluye-shanchu" unicode="&#59196;" d="M512 386.594133m-368.64 0a368.64 368.64 0 1 1 737.28 0 368.64 368.64 0 1 1-737.28 0ZM675.84 508.1088l-42.461867 42.325333L512 429.056l-121.378133 121.378133-42.461867-42.325333 121.378133-121.514667L348.16 265.216l42.461867-42.461867 121.378133 121.514667 121.378133-121.514667L675.84 265.216l-121.378133 121.378133z"  horiz-adv-x="1024" />

    
    <glyph glyph-name="faxian" unicode="&#59190;" d="M157.013333 652.151467h709.973334v-78.916267H157.013333zM157.013333 416.3584h709.973334v-78.916267H157.013333zM157.013333 183.842133h709.973334v-78.916266H157.013333z"  horiz-adv-x="1024" />

    
    <glyph glyph-name="shezhi2" unicode="&#59191;" d="M927.607467 384L716.8 735.300267H307.2L96.392533 384 307.2 32.699733h409.6L927.607467 384zM670.378667 114.619733H353.621333L191.965867 384 353.621333 653.380267h316.757334L832.034133 384 670.378667 114.619733zM512 554.666667c-94.208 0-170.666667-76.458667-170.666667-170.666667s76.458667-170.666667 170.666667-170.666667 170.666667 76.458667 170.666667 170.666667-76.458667 170.666667-170.666667 170.666667z m0-266.6496c-52.974933 0-95.982933 43.008-95.982933 95.982933s43.008 95.982933 95.982933 95.982933 95.982933-43.008 95.982933-95.982933-43.008-95.982933-95.982933-95.982933z"  horiz-adv-x="1024" />

    
    <glyph glyph-name="shouye1" unicode="&#59192;" d="M962.56 402.8416L512.136533 767.112533l-0.136533 0.136534-0.136533-0.136534L61.44 402.8416l52.0192-64.443733L512 660.753067l398.5408-322.3552zM236.066133 94.0032h551.867734V11.264H236.066133zM258.205013 473.489408l59.968171-451.377835-82.019669-10.89536-59.968171 451.37647zM847.958016 462.548992l-59.966805-451.376469-82.01967 10.89536 59.968171 451.3792z"  horiz-adv-x="1024" />

    
    <glyph glyph-name="wode" unicode="&#59193;" d="M512 730.248533c-138.8544 0-251.357867-112.503467-251.357867-251.357866S373.1456 227.5328 512 227.5328c138.8544 0 251.357867 112.503467 251.357867 251.357867S650.8544 730.248533 512 730.248533z m0-425.984c-96.256 0-174.626133 78.370133-174.626133 174.626134S415.744 653.5168 512 653.5168 686.626133 575.146667 686.626133 478.890667 608.256 304.264533 512 304.264533zM188.552533 37.751467c16.384 28.945067 36.864 55.978667 61.0304 80.145066 70.0416 70.0416 163.293867 108.680533 262.417067 108.680534s192.375467-38.638933 262.417067-108.680534c24.1664-24.1664 44.6464-51.063467 61.0304-80.145066h85.742933C851.421867 194.218667 694.408533 303.3088 512 303.3088S172.578133 194.218667 102.8096 37.751467h85.742933z"  horiz-adv-x="1024" />

    
    <glyph glyph-name="bianji3" unicode="&#59194;" d="M638.429867 732.16L177.083733 213.060267V35.84H354.986667l469.674666 525.789867L638.429867 732.16z m-307.2-643.345067h-100.352v104.448l409.736533 453.290667 100.625067-89.019733-410.0096-468.718934zM849.783467 100.010667H469.674667l-57.344-64.170667h437.4528zM661.504 437.930667l-94.071467 93.934933-20.8896 20.8896-41.642666-41.7792 20.753066-20.8896 94.071467-93.934933z"  horiz-adv-x="1024" />

    
    <glyph glyph-name="shanchu2" unicode="&#59195;" d="M175.3088 594.670933h673.3824V527.36H175.3088zM306.989739 569.750869l70.040234-522.327381-66.711552-8.945664-70.0416 522.327381zM783.91296 560.8448l-70.0416-522.327381-66.711552 8.945664 70.0416 522.327381zM308.565333 105.745067h406.869334v-67.310934H308.565333zM377.378133 734.754133h269.380267v-67.310933H377.378133zM309.389995 561.015467l67.962197 173.67313 62.93504-24.627882-67.962197-173.673131zM651.707733 536.484523l-67.963562 173.67313 62.93504 24.626518 67.962197-173.671766zM488.379733 471.517867h47.104v-291.771734h-47.104zM402.090667 471.517867H449.194667v-291.771734h-47.104zM574.6688 471.517867h47.104v-291.771734h-47.104z"  horiz-adv-x="1024" />

    
    <glyph glyph-name="qukuailian" unicode="&#59188;" d="M893.379528 709.744882c-47.571654 0-86.274016-39.911811-86.274016-89.297638v-2.620472l-155.817323-34.469292-26.607874 77.20315c6.248819 7.055118 9.877165 16.529134 9.877165 26.809449 0 22.173228-17.335433 40.113386-38.903937 40.113386-20.96378 0-37.896063-17.133858-38.702362-38.500788L170.532283 489.020472c-6.853543 4.031496-14.916535 6.450394-23.382677 6.450394-26.204724 0-47.370079-21.971654-47.370078-49.184252S120.944882 397.303937 147.149606 397.303937c5.845669 0 11.489764 1.007874 16.529134 3.023622l240.075591-256c-1.411024-4.63622-2.217323-9.877165-2.217323-15.11811 0-24.592126 17.335433-44.749606 38.903937-44.749606s38.903937 19.955906 38.903937 44.749606v1.814173L698.859843 172.346457c9.675591-30.23622 37.089764-52.006299 69.543307-52.0063 40.516535 0 73.373228 34.066142 73.373228 75.993701 0 27.212598-13.908661 51.2-34.670866 64.503937l73.977953 271.319685c4.031496-0.604724 8.264567-1.007874 12.296063-1.007874 47.571654 0 86.274016 39.911811 86.274015 89.297638 0 49.385827-38.702362 89.297638-86.274015 89.297638z m-176.176378-458.985827L211.653543 449.713386l425.725985 94.135433 96.755905-280.188976c-6.248819-3.628346-11.892913-7.861417-16.932283-12.900788z m-485.996851 239.874016l333.606299 172.749606c7.055118-9.675591 18.343307-15.924409 30.840945-15.924409 2.015748 0 3.829921 0.201575 5.84567 0.403149l24.188976-70.148031-394.48189-87.080315z m209.234646-316.674016c-7.861417 0-15.11811-2.620472-21.366929-7.256693L184.844094 416.453543c1.007874 1.411024 2.015748 2.822047 3.023623 4.434646l510.790551-201.171654c-2.015748-6.651969-3.225197-13.505512-3.426772-20.762204l-223.949606-42.129134c-7.256693 10.48189-18.343307 17.133858-30.840945 17.133858zM774.047244 271.924409c-2.015748 0.201575-3.829921 0.201575-5.845669 0.201575-3.225197 0-6.450394-0.201575-9.474016-0.604724L662.777953 549.291339l151.987401 33.662992c7.256693-16.125984 18.948031-29.631496 33.461418-38.702362L774.047244 271.924409z"  horiz-adv-x="1100" />

    
    <glyph glyph-name="anzhuo1" unicode="&#59189;" d="M203.5712 534.7328c-29.0816 0-52.6336-23.552-52.6336-52.6336v-220.3648c0-29.0816 23.552-52.6336 52.6336-52.6336s52.6336 23.552 52.6336 52.6336V482.0992c0.2048 29.0816-23.3472 52.6336-52.6336 52.6336z m73.1136-351.232c0-31.1296 25.1904-56.1152 56.32-56.1152h38.2976v-116.5312c0-29.0816 23.552-52.6336 52.6336-52.6336s52.6336 23.552 52.6336 52.6336v116.5312h71.0656v-116.5312c0-29.0816 23.552-52.6336 52.6336-52.6336s52.6336 23.552 52.6336 52.6336v116.5312h38.2976c31.1296 0 56.32 25.1904 56.32 56.1152V524.9024H276.6848v-341.4016zM628.736 732.5696l36.864 66.9696c2.048 3.4816 0.6144 7.9872-2.8672 9.8304-3.4816 1.8432-7.9872 0.6144-9.8304-2.8672l-37.2736-67.584c-31.1296 13.7216-66.1504 21.504-103.2192 21.504-36.864 0-71.8848-7.7824-103.2192-21.504l-37.2736 67.584c-1.8432 3.4816-6.3488 4.9152-9.8304 2.8672-3.4816-1.8432-4.9152-6.3488-2.8672-9.8304l36.864-66.9696c-72.2944-37.2736-121.0368-108.1344-121.0368-189.44h474.7264c0 81.5104-48.7424 152.1664-121.0368 189.44z m-224.4608-103.6288c-11.0592 0-19.8656 8.8064-19.8656 19.8656 0 11.0592 8.8064 19.8656 19.8656 19.8656 11.0592 0 19.8656-8.8064 19.8656-19.8656 0-10.8544-9.0112-19.8656-19.8656-19.8656z m216.2688 0c-11.0592 0-19.8656 8.8064-19.8656 19.8656 0 11.0592 8.8064 19.8656 19.8656 19.8656 11.0592 0 19.8656-8.8064 19.8656-19.8656-0.2048-10.8544-9.0112-19.8656-19.8656-19.8656z m200.4992-94.208c-29.0816 0-52.6336-23.552-52.6336-52.6336v-220.3648c0-29.0816 23.552-52.6336 52.6336-52.6336s52.6336 23.552 52.6336 52.6336V482.0992c0 29.0816-23.552 52.6336-52.6336 52.6336z m0 0"  horiz-adv-x="1024" />

    
    <glyph glyph-name="weixuanze" unicode="&#59187;" d="M510.966148 682.053451C345.914717 682.053451 212.000475 548.139209 212.000475 383.087778c0-165.051431 133.914242-298.965673 298.965673-298.965673 165.051431 0 298.965673 133.914242 298.965673 298.965673-0.12163 165.051431-134.035871 298.965673-298.965673 298.965673z m0-547.941561C373.889536 134.11189 261.86863 245.159758 261.86863 383.087778c0 138.04965 111.047868 249.097518 249.097518 249.097517 138.04965 0 249.097518-111.047868 249.097518-249.097517 0-137.92802-111.047868-248.975888-249.097518-248.975888z m0 0"  horiz-adv-x="1024" />

    
    <glyph glyph-name="xuanze" unicode="&#59186;" d="M538.666667 673.066667c-169.6 0-307.2-137.6-307.2-307.2s137.6-307.2 307.2-307.2 307.2 137.6 307.2 307.2-137.6 307.2-307.2 307.2z m0-563.2c-140.8 0-256 114.133333-256 256s114.133333 256 256 256 256-114.133333 256-256-114.133333-256-256-256zM638.933333 454.4L497.066667 312.53333299999997l-57.6 57.6c-9.6 9.6-26.666667 9.6-36.266667 0-9.6-9.6-9.6-26.666667 0-36.266666l75.733333-75.733334c9.6-9.6 26.666667-9.6 36.266667 0l161.066667 161.066667c9.6 9.6 9.6 26.666667 0 36.266667-10.666667 9.6-26.666667 9.6-37.333334-1.066667z"  horiz-adv-x="1024" />

    
    <glyph glyph-name="youxiang1" unicode="&#59172;" d="M512.065626 792.463766C286.455304 792.463766 102.907067 609.250282 102.907067 384.043349S286.455304-24.36623 512.065626-24.36623c225.615138 0 409.158559 183.202647 409.158559 408.409579 0 225.206932-183.542217 408.420417-409.158559 408.420417z m0-801.956364c-217.407668 0-394.281314 176.541302-394.281314 393.535947S294.659163 777.587725 512.065626 777.587725c217.410076 0 394.283723-176.548527 394.283723-393.543172-0.004817-216.995849-176.873647-393.537151-394.283723-393.537151z m0 0M693.698065 228.693843c-8.08826-4.83947-17.702176-8.084648-27.379911-8.084648h-309.369634c-9.677735 0-19.351858 3.245178-27.376298 8.084648l141.789599 141.789599 30.626293-25.78562c4.840674-3.24277 11.269619-3.24277 16.107884 0l30.626293 25.78562 140.196511-135.358246 4.779263-6.431353z m16.105475 19.295263l-3.240361 3.24277-138.548033 135.363062 120.842245 98.246413 24.193736 19.353062v-236.849836c1.594292-6.432557 0.001204-12.862706-3.247587-19.355471z m-396.340406 0c-3.248791 6.431353-3.248791 12.862706-3.248791 19.354267V505.787501l24.19494-19.354267 117.599475-98.246412-133.708563-133.704951-4.837061-6.492765z m6.432557 281.990927c9.676531 11.269619 22.536829 17.702176 37.052829 17.702175H664.72627c14.513593 0 29.030797-6.432557 37.056442-17.702175l-29.029593-24.192532-164.333652-133.709768L348.866281 505.787501l-28.97059 24.192532z m0 0"  horiz-adv-x="1024" />

    
    </font>
</defs>
</svg>
